<?xml version="1.0" encoding="UTF-8" standalone="no"?>
<!-- Created with Inkscape (http://www.inkscape.org/) -->

<svg
   xmlns:a="http://ns.adobe.com/AdobeSVGViewerExtensions/3.0/"
   xmlns:dc="http://purl.org/dc/elements/1.1/"
   xmlns:cc="http://creativecommons.org/ns#"
   xmlns:rdf="http://www.w3.org/1999/02/22-rdf-syntax-ns#"
   xmlns:svg="http://www.w3.org/2000/svg"
   xmlns="http://www.w3.org/2000/svg"
   xmlns:xlink="http://www.w3.org/1999/xlink"
   xmlns:sodipodi="http://sodipodi.sourceforge.net/DTD/sodipodi-0.dtd"
   xmlns:inkscape="http://www.inkscape.org/namespaces/inkscape"
   id="svg2"
   version="1.1"
   inkscape:version="0.48.4 r9939"
   width="417.91852"
   height="83.03138"
   xml:space="preserve"
   sodipodi:docname="Waik_OnScreen_RGB_H_1BlackR.eps"
   inkscape:export-filename="/home/troyw/public_html/moodle27x/theme/sofresh/pix/logo3.png"
   inkscape:export-xdpi="27.387589"
   inkscape:export-ydpi="27.387589"><metadata
     id="metadata8"><rdf:RDF><cc:Work
         rdf:about=""><dc:format>image/svg+xml</dc:format><dc:type
           rdf:resource="http://purl.org/dc/dcmitype/StillImage" /><dc:title></dc:title></cc:Work></rdf:RDF></metadata><defs
     id="defs6"><clipPath
       clipPathUnits="userSpaceOnUse"
       id="clipPath3103"><rect
         id="rect3105"
         width="709.07465"
         height="833.64178"
         x="297.04477"
         y="-1044.4478"
         transform="scale(1,-1)" /></clipPath><clipPath
       clipPathUnits="userSpaceOnUse"
       id="clipPath3109"><rect
         id="rect3111"
         width="657.22937"
         height="758.86279"
         x="317.37146"
         y="-996.77106"
         transform="scale(1,-1)"
         style="fill:none" /></clipPath><radialGradient
       id="SVGID_1_"
       cx="138.24319"
       cy="48.0928"
       r="123.3346"
       gradientUnits="userSpaceOnUse"><stop
         offset="0"
         style="stop-color:#FAAF40"
         id="stop7" /><stop
         offset="4.321454e-02"
         style="stop-color:#F9A538"
         id="stop9" /><stop
         offset="0.1116"
         style="stop-color:#F89D31"
         id="stop11" /><stop
         offset="0.2269"
         style="stop-color:#F89A2F"
         id="stop13" /><stop
         offset="0.5276"
         style="stop-color:#F7922D"
         id="stop15" /><stop
         offset="1"
         style="stop-color:#F37B28"
         id="stop17" /><a:midPointStop
         offset="0"
         style="stop-color:#FAAF40" /><a:midPointStop
         offset="0.1982"
         style="stop-color:#FAAF40" /><a:midPointStop
         offset="0.2269"
         style="stop-color:#F89A2F" /><a:midPointStop
         offset="0.6064"
         style="stop-color:#F89A2F" /><a:midPointStop
         offset="1"
         style="stop-color:#F37B28" /></radialGradient><radialGradient
       id="SVGID_1_-4"
       cx="138.24319"
       cy="48.0928"
       r="123.3346"
       gradientUnits="userSpaceOnUse"><stop
         offset="0"
         style="stop-color:#FAAF40"
         id="stop7-9" /><stop
         offset="4.321454e-02"
         style="stop-color:#F9A538"
         id="stop9-1" /><stop
         offset="0.1116"
         style="stop-color:#F89D31"
         id="stop11-5" /><stop
         offset="0.2269"
         style="stop-color:#F89A2F"
         id="stop13-5" /><stop
         offset="0.5276"
         style="stop-color:#F7922D"
         id="stop15-5" /><stop
         offset="1"
         style="stop-color:#F37B28"
         id="stop17-6" /><a:midPointStop
         offset="0"
         style="stop-color:#FAAF40" /><a:midPointStop
         offset="0.1982"
         style="stop-color:#FAAF40" /><a:midPointStop
         offset="0.2269"
         style="stop-color:#F89A2F" /><a:midPointStop
         offset="0.6064"
         style="stop-color:#F89A2F" /><a:midPointStop
         offset="1"
         style="stop-color:#F37B28" /></radialGradient><radialGradient
       gradientTransform="matrix(0.8,0,0,-0.8,441.32841,195.81631)"
       id="SVGID_2_"
       cx="138.24319"
       cy="48.0928"
       r="123.3347"
       gradientUnits="userSpaceOnUse"><stop
         offset="0"
         style="stop-color:#FAAF40"
         id="stop22" /><stop
         offset="4.321454e-02"
         style="stop-color:#F9A538"
         id="stop24" /><stop
         offset="0.1116"
         style="stop-color:#F89D31"
         id="stop26" /><stop
         offset="0.2269"
         style="stop-color:#F89A2F"
         id="stop28" /><stop
         offset="0.5276"
         style="stop-color:#F7922D"
         id="stop30" /><stop
         offset="1"
         style="stop-color:#F37B28"
         id="stop32" /><a:midPointStop
         offset="0"
         style="stop-color:#FAAF40" /><a:midPointStop
         offset="0.1982"
         style="stop-color:#FAAF40" /><a:midPointStop
         offset="0.2269"
         style="stop-color:#F89A2F" /><a:midPointStop
         offset="0.6064"
         style="stop-color:#F89A2F" /><a:midPointStop
         offset="1"
         style="stop-color:#F37B28" /></radialGradient><radialGradient
       gradientTransform="matrix(0.8,0,0,-0.8,441.32841,195.81631)"
       id="SVGID_3_"
       cx="138.24319"
       cy="48.0928"
       r="123.3348"
       gradientUnits="userSpaceOnUse"><stop
         offset="0"
         style="stop-color:#FAAF40"
         id="stop37" /><stop
         offset="4.321454e-02"
         style="stop-color:#F9A538"
         id="stop39" /><stop
         offset="0.1116"
         style="stop-color:#F89D31"
         id="stop41" /><stop
         offset="0.2269"
         style="stop-color:#F89A2F"
         id="stop43" /><stop
         offset="0.5276"
         style="stop-color:#F7922D"
         id="stop45" /><stop
         offset="1"
         style="stop-color:#F37B28"
         id="stop47" /><a:midPointStop
         offset="0"
         style="stop-color:#FAAF40" /><a:midPointStop
         offset="0.1982"
         style="stop-color:#FAAF40" /><a:midPointStop
         offset="0.2269"
         style="stop-color:#F89A2F" /><a:midPointStop
         offset="0.6064"
         style="stop-color:#F89A2F" /><a:midPointStop
         offset="1"
         style="stop-color:#F37B28" /></radialGradient><radialGradient
       gradientTransform="matrix(0.8,0,0,-0.8,441.32841,195.81631)"
       id="SVGID_4_"
       cx="138.24271"
       cy="48.0928"
       r="123.3356"
       gradientUnits="userSpaceOnUse"><stop
         offset="0"
         style="stop-color:#FAAF40"
         id="stop52" /><stop
         offset="4.321454e-02"
         style="stop-color:#F9A538"
         id="stop54" /><stop
         offset="0.1116"
         style="stop-color:#F89D31"
         id="stop56" /><stop
         offset="0.2269"
         style="stop-color:#F89A2F"
         id="stop58" /><stop
         offset="0.5276"
         style="stop-color:#F7922D"
         id="stop60" /><stop
         offset="1"
         style="stop-color:#F37B28"
         id="stop62" /><a:midPointStop
         offset="0"
         style="stop-color:#FAAF40" /><a:midPointStop
         offset="0.1982"
         style="stop-color:#FAAF40" /><a:midPointStop
         offset="0.2269"
         style="stop-color:#F89A2F" /><a:midPointStop
         offset="0.6064"
         style="stop-color:#F89A2F" /><a:midPointStop
         offset="1"
         style="stop-color:#F37B28" /></radialGradient><radialGradient
       gradientTransform="matrix(0.8,0,0,-0.8,441.32841,195.81631)"
       id="SVGID_5_"
       cx="138.2437"
       cy="48.0928"
       r="123.3342"
       gradientUnits="userSpaceOnUse"><stop
         offset="0"
         style="stop-color:#FAAF40"
         id="stop67" /><stop
         offset="4.321454e-02"
         style="stop-color:#F9A538"
         id="stop69" /><stop
         offset="0.1116"
         style="stop-color:#F89D31"
         id="stop71" /><stop
         offset="0.2269"
         style="stop-color:#F89A2F"
         id="stop73" /><stop
         offset="0.5276"
         style="stop-color:#F7922D"
         id="stop75" /><stop
         offset="1"
         style="stop-color:#F37B28"
         id="stop77" /><a:midPointStop
         offset="0"
         style="stop-color:#FAAF40" /><a:midPointStop
         offset="0.1982"
         style="stop-color:#FAAF40" /><a:midPointStop
         offset="0.2269"
         style="stop-color:#F89A2F" /><a:midPointStop
         offset="0.6064"
         style="stop-color:#F89A2F" /><a:midPointStop
         offset="1"
         style="stop-color:#F37B28" /></radialGradient><radialGradient
       gradientTransform="matrix(0.8,0,0,-0.8,441.32841,195.81631)"
       id="SVGID_6_"
       cx="138.24271"
       cy="48.0928"
       r="123.335"
       gradientUnits="userSpaceOnUse"><stop
         offset="0"
         style="stop-color:#FAAF40"
         id="stop82" /><stop
         offset="4.321454e-02"
         style="stop-color:#F9A538"
         id="stop84" /><stop
         offset="0.1116"
         style="stop-color:#F89D31"
         id="stop86" /><stop
         offset="0.2269"
         style="stop-color:#F89A2F"
         id="stop88" /><stop
         offset="0.5276"
         style="stop-color:#F7922D"
         id="stop90" /><stop
         offset="1"
         style="stop-color:#F37B28"
         id="stop92" /><a:midPointStop
         offset="0"
         style="stop-color:#FAAF40" /><a:midPointStop
         offset="0.1982"
         style="stop-color:#FAAF40" /><a:midPointStop
         offset="0.2269"
         style="stop-color:#F89A2F" /><a:midPointStop
         offset="0.6064"
         style="stop-color:#F89A2F" /><a:midPointStop
         offset="1"
         style="stop-color:#F37B28" /></radialGradient><linearGradient
       gradientTransform="matrix(0.8,0,0,-0.8,441.32841,195.81631)"
       id="SVGID_7_"
       gradientUnits="userSpaceOnUse"
       x1="15.5879"
       y1="31.877001"
       x2="41.848598"
       y2="31.877001"><stop
         offset="0"
         style="stop-color:#929497"
         id="stop99" /><stop
         offset="0.1245"
         style="stop-color:#757578"
         id="stop101" /><stop
         offset="0.2792"
         style="stop-color:#575658"
         id="stop103" /><stop
         offset="0.4403"
         style="stop-color:#403E3F"
         id="stop105" /><stop
         offset="0.6085"
         style="stop-color:#302D2E"
         id="stop107" /><stop
         offset="0.7884"
         style="stop-color:#262223"
         id="stop109" /><stop
         offset="1"
         style="stop-color:#231F20"
         id="stop111" /><a:midPointStop
         offset="0"
         style="stop-color:#929497" /><a:midPointStop
         offset="0.2606"
         style="stop-color:#929497" /><a:midPointStop
         offset="1"
         style="stop-color:#231F20" /></linearGradient><linearGradient
       gradientTransform="matrix(0.8,0,0,-0.8,441.32841,195.81631)"
       id="SVGID_8_"
       gradientUnits="userSpaceOnUse"
       x1="20.6187"
       y1="23.1113"
       x2="31.5222"
       y2="38.683201"><stop
         offset="0"
         style="stop-color:#231F20"
         id="stop116" /><stop
         offset="1"
         style="stop-color:#231F20;stop-opacity:0"
         id="stop118" /><a:midPointStop
         offset="0"
         style="stop-color:#231F20" /><a:midPointStop
         offset="0.5"
         style="stop-color:#231F20" /><a:midPointStop
         offset="1"
         style="stop-color:#231F20;stop-opacity:0" /></linearGradient><linearGradient
       gradientTransform="matrix(0.8,0,0,-0.8,441.32841,195.81631)"
       id="SVGID_9_"
       gradientUnits="userSpaceOnUse"
       x1="1.1670001"
       y1="23.5879"
       x2="49.166"
       y2="23.5879"><stop
         offset="0"
         style="stop-color:#929497"
         id="stop123" /><stop
         offset="0.1245"
         style="stop-color:#757578"
         id="stop125" /><stop
         offset="0.2792"
         style="stop-color:#575658"
         id="stop127" /><stop
         offset="0.4403"
         style="stop-color:#403E3F"
         id="stop129" /><stop
         offset="0.6085"
         style="stop-color:#302D2E"
         id="stop131" /><stop
         offset="0.7884"
         style="stop-color:#262223"
         id="stop133" /><stop
         offset="1"
         style="stop-color:#231F20"
         id="stop135" /><a:midPointStop
         offset="0"
         style="stop-color:#929497" /><a:midPointStop
         offset="0.2606"
         style="stop-color:#929497" /><a:midPointStop
         offset="1"
         style="stop-color:#231F20" /></linearGradient><radialGradient
       gradientTransform="matrix(0.8,0,0,-0.8,441.32841,195.81631)"
       r="123.3346"
       cy="48.0928"
       cx="138.24319"
       gradientUnits="userSpaceOnUse"
       id="radialGradient3241"
       xlink:href="#SVGID_1_-4"
       inkscape:collect="always" /></defs><sodipodi:namedview
     pagecolor="#ffffff"
     bordercolor="#666666"
     borderopacity="1"
     objecttolerance="10"
     gridtolerance="10"
     guidetolerance="10"
     inkscape:pageopacity="0"
     inkscape:pageshadow="2"
     inkscape:window-width="1920"
     inkscape:window-height="1021"
     id="namedview4"
     showgrid="true"
     fit-margin-top="0"
     fit-margin-left="0"
     fit-margin-right="0"
     fit-margin-bottom="0"
     inkscape:zoom="1.3528978"
     inkscape:cx="536.77964"
     inkscape:cy="-28.679741"
     inkscape:window-x="0"
     inkscape:window-y="27"
     inkscape:window-maximized="1"
     inkscape:current-layer="g10"
     inkscape:showpageshadow="false"
     showborder="true"><inkscape:grid
       type="xygrid"
       id="grid3781"
       empspacing="5"
       visible="true"
       enabled="true"
       snapvisiblegridlinesonly="true" /></sodipodi:namedview><g
     id="g10"
     inkscape:groupmode="layer"
     inkscape:label="ink_ext_XXXXXX"
     transform="matrix(1.25,0,0,-1.25,215.33673,188.90279)"><g
       id="g12"
       transform="matrix(0.09010307,0,0,0.08753243,-200.86553,63.87244)"
       clip-path="url(#clipPath3109)"
       inkscape:export-xdpi="90"
       inkscape:export-ydpi="90"><path
         d="m 6.75391,0.371094 3198.18999,0 0,1230.900006 -3198.18999,0 0,-1230.900006 z"
         style="fill:#0e0e0c;fill-opacity:1;fill-rule:nonzero;stroke:none"
         id="path14"
         inkscape:connector-curvature="0" /><path
         d="m 1183.83,923.645 c 0.13,1.183 -0.53,1.578 -1.72,1.578 l -2.9,0 -4.21,-0.133 c -0.93,0 -4.22,-0.129 -9.62,-0.129 l -21.08,0 -18.46,0.129 -8.16,0.133 -8.3,0 c -1.59,0 -1.85,0 -2.11,-0.661 -0.27,-0.527 -0.4,-1.05 -0.66,-4.082 l -1.19,-11.859 c 0,-0.789 -0.13,-1.715 -0.13,-2.504 l 0,-0.133 c 0,-0.789 1.19,-1.316 3.16,-1.316 0.66,0 0.93,0.262 1.06,0.922 1.05,5.402 3.82,9.488 7.51,11.199 3.16,1.453 6.98,1.977 18.97,1.977 l 1.85,0 0,-65.094 c 0,-7.383 -0.4,-9.356 -2.38,-10.41 -1.44,-0.926 -4.61,-1.582 -8.96,-1.981 -2.5,-0.129 -2.89,-0.394 -2.89,-1.711 l 0,-0.789 c 0,-1.32 0.39,-1.715 1.44,-1.715 l 1.59,0 c 1.31,0 3.42,0 6.45,0.133 4.88,0.133 8.96,0.133 12,0.133 l 13.7,-0.133 c 2.5,0 3.95,-0.133 4.48,-0.133 l 1.85,0 c 1.97,0 2.24,0.133 2.24,1.715 l 0,1.317 c 0,0.922 -0.53,1.054 -3.7,1.316 -5.4,0.395 -7.24,0.793 -8.82,1.449 -2.51,1.188 -3.04,3.032 -3.04,10.809 l 0,65.094 5.54,0 c 4.09,0 8.7,-0.133 11.33,-0.395 1.85,-0.262 3.43,-0.656 5.01,-1.449 2.64,-1.449 4.21,-4.481 4.87,-9.883 0.27,-1.977 0.53,-2.242 2.38,-2.242 1.84,0 2.11,0.265 2.24,1.582 l 0.13,2.109 0,3.032 0.4,8.96 0,1.45 0.13,1.715"
         style="fill:#ffffff;fill-opacity:1;fill-rule:nonzero;stroke:none"
         id="path16"
         inkscape:connector-curvature="0" /><path
         d="m 1311.71,838.781 0,0.528 c 0,1.711 -0.39,1.972 -2.9,2.105 -0.13,0 -1.18,0.133 -3.03,0.266 l -0.13,0.129 c -5.67,0.66 -6.46,2.109 -6.46,11.863 l 0,54.949 c 0,9.75 0.66,11.067 6.06,11.859 l 0.14,0 c 1.58,0.262 2.63,0.395 2.9,0.395 2.5,0.133 2.89,0.395 2.89,2.242 l 0,0.528 c 0,1.183 -0.39,1.578 -1.57,1.578 -0.27,0 -0.66,-0.133 -1.19,-0.133 l -5.54,0 -4.34,-0.129 c -3.7,-0.133 -6.46,-0.133 -7.91,-0.133 l -1.06,0 c -0.79,0.133 -3.69,0.262 -8.56,0.262 l -4.74,0 -1.06,0.133 c -1.45,0 -1.71,-0.395 -1.71,-1.711 l 0,-0.395 c 0,-1.847 0.39,-2.109 2.77,-2.242 0.52,0 1.44,-0.133 3.03,-0.395 l 0.13,0 c 5.4,-0.792 6.06,-2.109 6.06,-11.859 l 0,-21.746 -44.28,0 0,21.746 c 0,9.75 0.66,11.067 6.06,11.859 l 0.14,0 c 1.58,0.262 2.63,0.395 2.89,0.395 2.51,0.133 2.9,0.395 2.9,2.242 l 0,0.528 c 0,1.183 -0.39,1.578 -1.58,1.578 -0.66,0 -2.9,-0.133 -6.06,-0.133 -5.14,-0.129 -9.09,-0.262 -11.86,-0.262 -2.37,0 -4.87,0 -7.51,0.133 l -3.16,0.129 -4.74,0 -1.06,0.133 c -1.45,0 -1.71,-0.395 -1.71,-1.711 l 0,-0.395 c 0,-1.847 0.39,-2.109 2.77,-2.242 0.52,0 1.44,-0.133 3.03,-0.395 l 0.13,0 c 5.4,-0.792 6.06,-2.109 6.06,-11.859 l 0,-55.082 c 0,-5.402 -0.26,-7.644 -0.92,-9.223 -0.66,-1.32 -1.45,-1.714 -5.14,-2.636 l -0.13,0 c -1.06,-0.266 -1.98,-0.399 -3.03,-0.399 -2.38,0 -2.77,-0.261 -2.77,-2.238 l 0,-0.527 c 0,-1.184 0.39,-1.45 1.58,-1.45 l 3.56,0 3.16,0.133 c 4.35,0.133 8.17,0.133 11.47,0.133 3.55,0 9.88,-0.266 15.41,-0.266 l 2.11,0 c 1.31,0 1.58,0.266 1.58,1.844 l 0,0.66 c 0,1.45 -0.53,1.711 -2.77,1.711 -0.13,0 -1.18,0.133 -3.29,0.399 l -0.13,0 c -6.33,0.789 -6.99,1.976 -6.99,11.992 l 0,26.355 44.28,0 0,-26.488 c 0,-10.148 -0.4,-10.805 -6.59,-11.859 l -0.26,0 c -1.19,-0.266 -2.24,-0.399 -3.17,-0.399 -2.24,-0.129 -2.63,-0.394 -2.63,-1.972 l 0,-0.399 c 0,-1.578 0.39,-1.844 1.71,-1.844 l 3.96,0 3.42,0.133 c 3.69,0.133 7.25,0.133 10.68,0.133 2.89,0 5.66,0 8.3,-0.133 l 5.14,-0.133 4.21,0 c 1.19,0 1.45,0.266 1.45,1.715"
         style="fill:#ffffff;fill-opacity:1;fill-rule:nonzero;stroke:none"
         id="path18"
         inkscape:connector-curvature="0" /><path
         d="m 1414.04,858.152 c 0,0.922 -1.19,1.582 -3.04,1.582 -0.52,0 -0.92,-0.398 -1.45,-1.582 -3.03,-7.117 -5.14,-9.488 -9.88,-11.464 -4.74,-1.981 -8.96,-2.637 -17.26,-2.637 -10.15,0 -11.86,1.187 -11.86,7.773 l 0,28.332 3.03,0 6.59,-0.129 c 11.99,-0.265 14.1,-0.398 15.28,-2.375 0.66,-1.187 1.19,-3.425 1.85,-8.168 0.26,-1.054 0.52,-1.32 1.32,-1.32 2.37,0 2.9,0.266 2.9,1.848 0,0.66 0,1.316 -0.14,2.105 -0.13,3.692 -0.13,7.512 -0.13,11.731 0,3.16 0.13,6.191 0.13,8.828 l 0,3.426 c 0,1.316 -0.39,1.714 -2.37,1.714 -1.45,0 -1.84,-0.398 -1.97,-2.375 -0.4,-6.851 -2.38,-8.828 -9.23,-8.957 l -6.59,-0.136 -7.51,0 -3.16,-0.129 0,32.414 3.29,0.133 6.73,0 c 8.56,0 14.23,-0.789 17.13,-2.106 2.63,-1.32 5.26,-5.14 6.71,-9.359 l 0.53,-1.578 c 0.27,-0.661 0.4,-0.793 0.79,-0.793 2.11,0 3.16,0.527 3.16,1.582 0,0.394 0,1.054 -0.13,1.582 -0.26,1.844 -0.65,4.875 -1.05,10.148 -0.13,1.446 -0.26,2.633 -0.26,3.426 -0.14,3.16 -0.53,3.555 -3.43,3.555 -0.66,0 -1.32,0 -2.11,-0.133 l -9.62,0 c -4.61,0 -9.09,-0.129 -13.44,-0.129 l -21.08,0 c -4.48,0 -7.52,0 -9.09,0.129 l -2.51,0.133 c -1.05,0 -1.32,-0.395 -1.32,-1.578 l 0,-1.188 c 0,-1.187 0.4,-1.582 1.45,-1.582 l 2.38,0 c 0.78,-0.133 1.71,-0.133 2.63,-0.262 1.19,-0.265 2.24,-0.66 3.16,-1.32 1.98,-1.316 2.37,-3.293 2.37,-10.543 l 0,-57.715 c 0,-4.746 -0.26,-5.273 -1.05,-6.719 -0.26,-0.66 -0.66,-1.054 -1.05,-1.32 -1.58,-1.055 -3.69,-1.582 -8.44,-1.844 -1.05,-0.132 -1.45,-0.398 -1.45,-1.453 l 0,-1.312 c 0,-1.055 0.4,-1.321 1.58,-1.321 l 4.35,0 c 1.85,0 4.35,0.133 7.65,0.133 6.85,0.133 11.98,0.133 15.41,0.133 l 2.9,0 15.68,-0.133 7.51,0 c 3.17,0 5.14,-0.133 5.93,-0.133 l 2.37,0 c 1.98,0 2.38,0.661 2.64,2.633 0,0.528 0.13,1.453 0.26,2.637 l 1.06,6.328 c 0.52,3.293 1.19,6.191 1.71,8.035 0.14,0.528 0.14,1.055 0.14,1.453"
         style="fill:#ffffff;fill-opacity:1;fill-rule:nonzero;stroke:none"
         id="path20"
         inkscape:connector-curvature="0" /><path
         d="m 1608.89,922.984 0,0.793 c 0,1.051 -0.4,1.446 -1.59,1.446 -0.79,0 -2.9,-0.133 -6.32,-0.133 -5.27,-0.129 -8.96,-0.129 -10.94,-0.129 l -7.38,0.129 -5.53,0 -1.32,0.133 -0.13,0 c -0.93,0 -1.32,-0.262 -1.45,-1.317 l 0,-0.66 c -0.13,-0.129 -0.13,-0.262 -0.13,-0.523 0,-1.453 0.65,-1.848 4.08,-2.11 5.01,-0.265 7.78,-1.32 8.7,-3.164 0.66,-1.449 0.92,-4.347 1.05,-10.015 l 0.4,-30.836 0,-2.633 c 0,-11.203 -0.79,-15.945 -3.56,-20.559 -4.09,-6.851 -11.47,-10.41 -21.74,-10.41 -10.15,0 -18.98,4.086 -22.01,10.149 -2.37,4.742 -3.03,9.617 -3.03,21.742 l 0,33.734 c 0,0.262 0,1.317 0.13,3.164 0,1.445 0.13,2.5 0.13,3.16 0.27,1.977 0.93,3.297 1.98,3.953 1.72,1.055 4.22,1.582 10.67,2.11 1.19,0.133 1.46,0.394 1.46,1.844 l 0,1.183 c 0,0.793 -0.53,1.188 -1.72,1.188 l -0.13,0 -0.92,-0.133 -8.17,0 -9.76,-0.129 -11.72,0.129 -4.35,0 -1.71,0.133 c -1.06,-0.133 -1.32,-0.528 -1.32,-1.578 0,-2.375 0.26,-2.77 1.84,-2.903 l 2.11,-0.129 c 4.35,-0.265 6.59,-1.715 7.25,-4.218 0.39,-1.583 0.53,-2.633 0.53,-7.774 l 0,-43.75 c 0,-6.851 1.18,-12.519 3.29,-16.601 1.58,-3.297 4.74,-6.329 8.83,-8.571 6.06,-3.422 13.31,-4.875 22.54,-4.875 15.67,0 27.53,5.403 32.67,14.762 3.69,6.852 4.35,10.277 4.48,26.879 l 0.27,30.969 c 0,7.378 0.79,10.675 2.37,11.726 1.45,0.926 4.48,1.582 8.17,1.848 1.58,0.133 1.98,0.394 1.98,1.976"
         style="fill:#ffffff;fill-opacity:1;fill-rule:nonzero;stroke:none"
         id="path22"
         inkscape:connector-curvature="0" /><path
         d="m 1736.62,923.777 c 0,1.051 -0.39,1.446 -1.97,1.446 -0.4,0 -0.92,-0.133 -1.45,-0.133 -1.05,0 -2.24,-0.129 -3.95,-0.129 l -9.36,0 c -2.77,0 -6.06,0.129 -10.14,0.129 l -4.48,0 c -0.53,0 -1.06,0.133 -1.59,0.133 -1.58,0 -1.97,-0.395 -1.97,-2.106 0,-1.847 0.39,-2.242 2.24,-2.375 0.92,0 3.82,-0.394 6.19,-0.789 2.64,-0.394 4.35,-1.449 5.01,-2.898 0.79,-1.582 1.05,-3.559 1.18,-8.832 l 1.06,-49.282 -51.39,66.149 -2.38,-0.129 -11.2,0 -7.11,0.129 -1.98,0.133 -0.13,0 c -1.45,0 -1.71,-0.528 -1.71,-2.899 0,-1.054 0.52,-1.582 2.1,-1.711 5.01,-0.527 7.91,-1.715 10.94,-4.746 l -2.11,-58.242 -0.13,-5.008 c -0.13,-5.402 -0.79,-7.777 -2.37,-9.094 -1.05,-0.789 -1.98,-1.054 -4.88,-1.582 l -2.24,-0.394 c -2.76,-0.527 -3.03,-0.793 -3.03,-2.637 0,-1.316 0.4,-1.844 1.59,-1.844 0.65,0 0.65,0 1.97,0.133 l 4.61,0 8.57,0.133 c 2.5,0 5.53,0 9.22,-0.133 3.56,-0.133 4.88,-0.133 5.93,-0.133 2.77,0 3.03,0.133 3.03,1.582 0,1.977 -0.26,2.239 -1.98,2.504 -1.57,0.129 -4.74,0.789 -6.71,1.317 -2.51,0.527 -4.22,1.847 -4.75,3.558 -0.53,1.317 -0.66,4.215 -0.66,8.961 l 0,2.11 0.8,51.261 55.07,-70.5 c 1.19,-1.582 1.85,-2.109 2.25,-2.375 0.39,-0.261 1.05,-0.394 2.37,-0.394 1.71,0 2.37,0.133 2.76,0.394 0.27,0.395 0.4,0.793 0.4,3.032 l 0.26,69.183 c 0,6.981 0.66,9.883 2.64,11.199 1.18,0.79 2.77,1.188 7.51,1.844 1.58,0.266 1.97,0.793 1.97,3.035"
         style="fill:#ffffff;fill-opacity:1;fill-rule:nonzero;stroke:none"
         id="path24"
         inkscape:connector-curvature="0" /><path
         d="m 1808.73,838.91 0,1.188 c -0.12,0.656 -0.52,0.922 -1.71,1.054 l -3.16,0.395 c -6.19,0.789 -7.51,1.976 -7.64,7.644 l -0.13,4.348 0,55.082 c 0,0.262 0.13,1.711 0.26,4.481 0,1.05 0,1.843 0.13,2.632 0.13,1.582 0.79,2.899 1.72,3.426 1.31,0.926 4.48,1.582 8.3,1.981 1.45,0 1.58,0.394 1.58,1.976 l 0,0.528 c 0,1.183 -0.27,1.71 -1.58,1.578 l -2.24,-0.133 -5.8,-0.129 -8.83,0 -11.07,0.129 -5.93,0 c -0.4,0.133 -0.66,0.133 -0.92,0.133 -1.19,0 -1.45,-0.262 -1.45,-1.188 l -0.13,-0.523 0,-0.395 c 0,-1.847 0.26,-1.976 1.44,-2.109 3.96,-0.266 7.25,-0.922 8.44,-1.715 1.71,-1.316 2.11,-3.16 2.11,-10.672 l 0,-55.082 c 0,-6.723 -0.53,-9.488 -2.11,-10.543 -1.58,-1.055 -3.16,-1.449 -8.3,-1.715 -1.32,-0.129 -1.58,-0.527 -1.58,-2.238 l 0,-0.527 c 0,-1.184 0.39,-1.45 1.58,-1.45 l 1.84,0 c 1.32,0 2.77,0.133 4.09,0.133 4.34,0.133 7.11,0.133 8.43,0.133 l 6.06,0 c 1.85,0 4.62,0 8.57,-0.133 1.98,-0.133 3.42,-0.133 4.35,-0.133 l 2.11,0 c 1.31,0 1.57,0.266 1.57,1.844"
         style="fill:#ffffff;fill-opacity:1;fill-rule:nonzero;stroke:none"
         id="path26"
         inkscape:connector-curvature="0" /><path
         d="m 1935.86,922.852 c 0,2.109 -0.13,2.371 -1.58,2.371 -0.26,0 -0.66,-0.133 -1.19,-0.133 -3.16,-0.129 -7.25,-0.129 -10.27,-0.129 l -10.81,0 c -2.5,0 -4.22,0.129 -5.27,0.129 -0.53,0 -0.92,0.133 -1.32,0.133 -1.18,0 -1.58,-0.661 -1.58,-2.239 0,-1.449 0.4,-1.976 1.45,-2.109 l 2.24,-0.262 c 4.35,-0.527 4.61,-0.527 5.93,-1.32 0.79,-0.527 1.32,-1.449 1.32,-2.504 0,-1.184 -0.26,-2.766 -0.92,-4.477 -0.93,-2.507 -1.45,-3.953 -1.72,-4.613 l -1.58,-4.351 -18.58,-49.942 -21.48,53.371 -1.97,4.875 c -1.06,2.5 -1.46,3.953 -1.46,5.27 0,2.238 1.98,2.898 8.18,3.691 l 1.97,0.262 c 1.19,0.133 1.58,0.395 1.58,1.977 0,1.843 -0.26,2.371 -1.44,2.371 -0.4,0 -0.93,-0.133 -1.59,-0.133 l -4.22,0 c -6.06,0 -9.88,-0.129 -11.33,-0.129 l -10.8,0 c -4.09,0 -6.33,0 -6.46,0.129 -0.92,0 -1.71,0.133 -2.24,0.133 -1.32,0 -1.58,-0.395 -1.58,-2.239 0,-1.582 0.26,-1.976 2.24,-2.242 3.42,-0.394 6.32,-1.183 7.51,-2.109 1.72,-1.184 1.98,-1.844 5.8,-10.539 l 2.77,-6.192 27.4,-64.043 0.8,-1.847 c 0.52,-1.188 0.79,-1.317 2.37,-1.317 l 1.85,0 0.78,0.129 c 0.66,0 0.93,0.266 1.32,1.188 l 0.4,0.922 26.74,65.496 c 1.19,2.765 1.85,4.347 1.98,4.742 1.06,2.371 2.11,4.742 3.43,7.379 0.79,1.711 1.58,2.898 2.24,3.82 1.18,1.317 2.9,1.977 6.06,2.371 2.11,0.266 2.37,0.399 2.77,0.66 0.26,0.266 0.26,0.66 0.26,1.45"
         style="fill:#ffffff;fill-opacity:1;fill-rule:nonzero;stroke:none"
         id="path28"
         inkscape:connector-curvature="0" /><path
         d="m 2035.5,858.152 c 0,0.922 -1.18,1.582 -3.03,1.582 -0.52,0 -0.92,-0.398 -1.45,-1.582 -3.03,-7.117 -5.14,-9.488 -9.88,-11.464 -4.75,-1.981 -8.96,-2.637 -17.26,-2.637 -10.15,0 -11.86,1.187 -11.86,7.773 l 0,28.332 3.03,0 6.59,-0.129 c 11.98,-0.265 14.09,-0.398 15.28,-2.375 0.66,-1.187 1.19,-3.425 1.85,-8.168 0.26,-1.054 0.52,-1.32 1.31,-1.32 2.38,0 2.9,0.266 2.9,1.848 0,0.66 0,1.316 -0.13,2.105 -0.13,3.692 -0.13,7.512 -0.13,11.731 0,3.16 0.13,6.191 0.13,8.828 l 0,3.426 c 0,1.316 -0.39,1.714 -2.37,1.714 -1.45,0 -1.85,-0.398 -1.98,-2.375 -0.39,-6.851 -2.37,-8.828 -9.22,-8.957 l -6.59,-0.136 -7.51,0 -3.16,-0.129 0,32.414 3.29,0.133 6.72,0 c 8.57,0 14.23,-0.789 17.13,-2.106 2.64,-1.32 5.27,-5.14 6.72,-9.359 l 0.53,-1.578 c 0.26,-0.661 0.39,-0.793 0.79,-0.793 2.11,0 3.16,0.527 3.16,1.582 0,0.394 0,1.054 -0.13,1.582 -0.27,1.844 -0.66,4.875 -1.05,10.148 -0.14,1.446 -0.27,2.633 -0.27,3.426 -0.13,3.16 -0.53,3.555 -3.42,3.555 -0.66,0 -1.32,0 -2.11,-0.133 l -9.62,0 c -4.62,0 -9.09,-0.129 -13.44,-0.129 l -21.09,0 c -4.48,0 -7.51,0 -9.09,0.129 l -2.5,0.133 c -1.06,0 -1.32,-0.395 -1.32,-1.578 l 0,-1.188 c 0,-1.187 0.39,-1.582 1.45,-1.582 l 2.37,0 c 0.79,-0.133 1.72,-0.133 2.64,-0.262 1.18,-0.265 2.24,-0.66 3.16,-1.32 1.97,-1.316 2.37,-3.293 2.37,-10.543 l 0,-57.715 c 0,-4.746 -0.26,-5.273 -1.05,-6.719 -0.27,-0.66 -0.66,-1.054 -1.06,-1.32 -1.58,-1.055 -3.69,-1.582 -8.43,-1.844 -1.06,-0.132 -1.45,-0.398 -1.45,-1.453 l 0,-1.312 c 0,-1.055 0.39,-1.321 1.58,-1.321 l 4.35,0 c 1.84,0 4.35,0.133 7.64,0.133 6.86,0.133 12,0.133 15.42,0.133 l 2.9,0 15.68,-0.133 7.51,0 c 3.16,0 5.14,-0.133 5.93,-0.133 l 2.37,0 c 1.98,0 2.37,0.661 2.64,2.633 0,0.528 0.13,1.453 0.26,2.637 l 1.06,6.328 c 0.52,3.293 1.18,6.191 1.71,8.035 0.13,0.528 0.13,1.055 0.13,1.453"
         style="fill:#ffffff;fill-opacity:1;fill-rule:nonzero;stroke:none"
         id="path30"
         inkscape:connector-curvature="0" /><path
         d="m 2153.25,838.91 c 0,1.582 -0.39,1.977 -2.23,1.977 -5.01,0.133 -10.55,3.429 -14.63,8.699 -3.82,4.875 -8.17,11.594 -13.05,20.426 -4.22,7.379 -5.27,9.09 -8.7,13.437 11.34,4.086 17.53,11.992 17.53,22.274 0,7.379 -3.56,13.836 -9.49,17.129 -5.79,3.293 -12.52,4.613 -23.59,4.613 -7.9,0 -19.5,-0.922 -28.98,-2.11 -1.98,-0.265 -2.38,-0.265 -2.77,-0.527 -0.27,-0.266 -0.53,-0.793 -0.53,-1.711 0,-1.582 0.4,-2.109 1.71,-2.109 l 3.03,-0.133 c 3.96,-0.133 6.33,-1.316 7.25,-2.898 0.79,-1.582 0.79,-2.11 0.93,-6.719 l 0.13,-4.086 0,-53.633 -0.13,-3.16 c -0.14,-1.848 -0.14,-3.035 -0.14,-3.297 -0.13,-0.922 -0.26,-1.977 -0.79,-2.766 -0.26,-0.527 -0.66,-1.054 -1.05,-1.32 -1.19,-0.789 -3.43,-1.316 -6.2,-1.582 l -2.23,-0.262 c -1.19,0 -1.46,-0.398 -1.46,-1.976 0,-1.844 0.14,-2.11 1.46,-2.11 l 0.13,0 2.63,0.133 5.27,0 10.54,0.133 10.81,-0.133 4.21,-0.133 2.11,0 c 1.06,0 1.32,0.266 1.46,1.188 l 0,1.316 c 0,1.317 -0.4,1.582 -1.85,1.711 l -2.77,0.133 c -3.95,0.133 -6.32,1.32 -7.38,3.031 -0.52,1.055 -0.66,1.977 -0.79,6.063 -0.13,1.711 -0.13,2.637 -0.13,3.164 l 0,25.168 4.22,0 c 4.74,0 6.45,-1.977 12.52,-13.703 6.85,-13.575 10.67,-19.375 15.94,-24.117 4.22,-3.688 8.96,-5.403 15.29,-5.403 4.21,0 9.49,0.66 10.93,1.449 0.53,0.266 0.79,0.793 0.79,1.844 z m -35.18,64.57 c 0,-11.726 -8.3,-18.843 -22,-18.843 l -2.51,0 0,36.504 0.66,0 c 1.05,0.129 1.71,0.129 2.11,0.129 14.1,0 21.74,-6.325 21.74,-17.79"
         style="fill:#ffffff;fill-opacity:1;fill-rule:evenodd;stroke:none"
         id="path32"
         inkscape:connector-curvature="0" /><path
         d="m 2243.62,861.707 c 0,6.457 -2.24,12.125 -6.45,16.34 -3.83,3.82 -7.12,6.195 -15.95,10.808 -10.67,5.532 -13.04,7.114 -16.34,10.672 -2.24,2.243 -3.42,5.141 -3.42,8.172 0,7.508 6.72,13.043 15.94,13.043 9.09,0 14.76,-4.48 18.19,-14.23 0.39,-1.317 0.92,-1.844 1.58,-1.844 1.84,0 3.03,0.656 3.03,1.582 l 0,0.922 -0.13,0.66 -1.06,10.672 c 0,0.129 0,0.527 -0.13,1.055 -0.26,2.503 -0.53,3.031 -1.71,3.953 -3.3,2.238 -12.13,4.086 -18.71,4.086 -17.53,0 -29,-9.356 -29,-23.723 0,-6.984 3.17,-13.437 8.83,-17.789 3.56,-2.766 7.91,-5.531 13.18,-8.301 9.75,-5.14 13.05,-7.383 16.21,-10.805 2.37,-2.503 3.69,-5.668 3.69,-9.226 0,-9.09 -7.64,-15.813 -18.05,-15.813 -9.23,0 -16.87,5.403 -21.22,14.891 l -1.32,2.902 c -0.26,0.789 -0.53,1.051 -1.05,1.051 -1.98,0 -3.43,-0.656 -3.43,-1.578 0,-0.266 0,-0.66 0.13,-1.187 l 0.27,-1.977 2.24,-12.125 c 0.13,-0.527 0.13,-0.922 0.26,-1.316 0.39,-2.637 0.79,-3.293 2.24,-4.086 4.22,-2.239 12.78,-3.821 19.63,-3.821 19.64,0 32.55,10.672 32.55,27.012"
         style="fill:#ffffff;fill-opacity:1;fill-rule:nonzero;stroke:none"
         id="path34"
         inkscape:connector-curvature="0" /><path
         d="m 2317.41,838.91 0,1.188 c -0.12,0.656 -0.52,0.922 -1.71,1.054 l -3.16,0.395 c -6.19,0.789 -7.51,1.976 -7.64,7.644 l -0.13,4.348 0,55.082 c 0,0.262 0.13,1.711 0.26,4.481 0,1.05 0,1.843 0.13,2.632 0.13,1.582 0.79,2.899 1.72,3.426 1.31,0.926 4.48,1.582 8.3,1.981 1.44,0 1.58,0.394 1.58,1.976 l 0,0.528 c 0,1.183 -0.27,1.71 -1.58,1.578 l -2.25,-0.133 -5.79,-0.129 -8.83,0 -11.07,0.129 -5.93,0 c -0.4,0.133 -0.66,0.133 -0.92,0.133 -1.19,0 -1.45,-0.262 -1.45,-1.188 l -0.13,-0.523 0,-0.395 c 0,-1.847 0.26,-1.976 1.44,-2.109 3.96,-0.266 7.25,-0.922 8.44,-1.715 1.71,-1.316 2.11,-3.16 2.11,-10.672 l 0,-55.082 c 0,-6.723 -0.53,-9.488 -2.11,-10.543 -1.58,-1.055 -3.16,-1.449 -8.3,-1.715 -1.32,-0.129 -1.58,-0.527 -1.58,-2.238 l 0,-0.527 c 0,-1.184 0.39,-1.45 1.58,-1.45 l 1.84,0 c 1.32,0 2.77,0.133 4.09,0.133 4.34,0.133 7.11,0.133 8.43,0.133 l 6.06,0 c 1.85,0 4.62,0 8.57,-0.133 1.98,-0.133 3.42,-0.133 4.35,-0.133 l 2.11,0 c 1.31,0 1.57,0.266 1.57,1.844"
         style="fill:#ffffff;fill-opacity:1;fill-rule:nonzero;stroke:none"
         id="path36"
         inkscape:connector-curvature="0" /><path
         d="m 2426.49,923.645 c 0.13,1.183 -0.53,1.578 -1.71,1.578 l -2.9,0 -4.22,-0.133 c -0.92,0 -4.22,-0.129 -9.62,-0.129 l -21.08,0 -18.45,0.129 -8.17,0.133 -8.3,0 c -1.59,0 -1.85,0 -2.11,-0.661 -0.27,-0.527 -0.4,-1.05 -0.66,-4.082 l -1.19,-11.859 c 0,-0.789 -0.13,-1.715 -0.13,-2.504 l 0,-0.133 c 0,-0.789 1.19,-1.316 3.16,-1.316 0.66,0 0.93,0.262 1.06,0.922 1.05,5.402 3.82,9.488 7.51,11.199 3.16,1.453 6.98,1.977 18.98,1.977 l 1.84,0 0,-65.094 c 0,-7.383 -0.4,-9.356 -2.38,-10.41 -1.44,-0.926 -4.6,-1.582 -8.96,-1.981 -2.5,-0.129 -2.89,-0.394 -2.89,-1.711 l 0,-0.789 c 0,-1.32 0.39,-1.715 1.45,-1.715 l 1.58,0 c 1.32,0 3.43,0 6.45,0.133 4.88,0.133 8.97,0.133 12,0.133 l 13.7,-0.133 c 2.5,0 3.95,-0.133 4.48,-0.133 l 1.85,0 c 1.97,0 2.24,0.133 2.24,1.715 l 0,1.317 c 0,0.922 -0.53,1.054 -3.69,1.316 -5.41,0.395 -7.25,0.793 -8.83,1.449 -2.51,1.188 -3.03,3.032 -3.03,10.809 l 0,65.094 5.53,0 c 4.09,0 8.7,-0.133 11.33,-0.395 1.85,-0.262 3.43,-0.656 5.01,-1.449 2.64,-1.449 4.22,-4.481 4.87,-9.883 0.27,-1.977 0.53,-2.242 2.38,-2.242 1.84,0 2.11,0.265 2.24,1.582 l 0.13,2.109 0,3.032 0.4,8.96 0,1.45 0.13,1.715"
         style="fill:#ffffff;fill-opacity:1;fill-rule:nonzero;stroke:none"
         id="path38"
         inkscape:connector-curvature="0" /><path
         d="m 2545.41,923.117 c 0,1.578 -0.26,2.106 -1.45,2.106 l -0.26,0 -1.84,-0.133 -4.36,0 c -3.16,0 -6.05,-0.129 -8.56,-0.129 -2.24,0 -3.82,0.129 -9.09,0.129 l -4.61,0 c -0.79,0 -1.32,0 -1.58,0.133 l -0.27,0 c -1.18,0 -1.58,-0.528 -1.58,-1.844 0,-1.184 0.26,-1.844 0.66,-2.109 0.26,-0.129 0.66,-0.129 0.92,-0.262 0.27,0 1.06,0 2.64,-0.133 4.35,-0.262 6.72,-1.449 6.72,-3.426 0,-1.187 -1.58,-4.746 -3.82,-8.699 l -15.16,-25.957 -16.47,27.145 c -2.1,3.425 -3.29,6.062 -3.29,7.117 0,2.105 2.1,3.16 6.45,3.558 l 2.77,0.262 c 1.58,0.133 1.98,0.527 1.98,2.242 0,1.844 -0.13,2.238 -1.71,2.106 l -2.64,-0.133 -17.26,-0.129 c -4.62,0 -8.44,-0.133 -11.33,0 -1.85,0.129 -3.04,0.129 -3.56,0.129 l -2.11,0.133 -0.14,0 c -1.31,0 -1.44,-0.395 -1.44,-2.239 0,-1.582 0.13,-1.843 1.18,-1.976 l 2.11,-0.266 c 5.01,-0.656 6.85,-1.976 10.67,-8.301 0.4,-0.527 1.06,-1.582 1.98,-3.031 l 22.14,-34.789 0,-21.082 c 0,-7.644 -0.26,-9.223 -2.11,-10.41 -1.58,-1.055 -3.69,-1.449 -9.36,-1.848 -2.37,-0.129 -2.76,-0.394 -2.76,-1.711 l 0,-0.789 c 0,-1.449 0.26,-1.715 1.58,-1.715 l 0.26,0 c 0.92,0 1.58,0.133 2.11,0.133 l 6.59,0 10.8,0.133 12.13,-0.133 5.66,0 2.77,-0.133 0.13,0 c 1.19,0 1.45,0.266 1.45,1.45 l 0,1.054 c 0,1.45 -0.26,1.582 -3.42,1.844 -7.78,0.527 -10.41,1.32 -11.2,3.031 -0.53,1.188 -0.66,1.715 -0.79,5.664 -0.14,1.848 -0.14,3.036 -0.14,3.563 l 0,21.215 22.14,34.656 c 4.61,7.246 5.8,8.566 7.91,9.75 1.18,0.793 3.69,1.449 5.53,1.715 2.64,0.262 3.03,0.527 3.03,2.109"
         style="fill:#ffffff;fill-opacity:1;fill-rule:nonzero;stroke:none"
         id="path40"
         inkscape:connector-curvature="0" /><path
         d="m 2736.57,885.031 c 0,24.774 -18.18,42.696 -43.35,42.696 -27.94,0 -48.36,-20.688 -48.36,-49.02 0,-25.961 18.18,-44.145 44.01,-44.145 27.28,0 46.38,19.504 47.57,48.36 0.13,0.66 0.13,1.453 0.13,2.109 z m -14.36,-6.058 c 0,-21.875 -12.65,-37.164 -30.97,-37.164 -18.45,0 -32.28,17.925 -32.28,41.906 0,22.269 12.25,37.027 30.83,37.027 18.45,0 32.42,-17.922 32.42,-41.769"
         style="fill:#ffffff;fill-opacity:1;fill-rule:evenodd;stroke:none"
         id="path42"
         inkscape:connector-curvature="0" /><path
         d="m 2834.52,906.379 0,0.133 c 0,0.66 -0.13,1.187 -0.13,1.711 l -1.32,12.519 -0.26,2.242 c -0.27,1.844 -0.66,2.239 -1.98,2.239 -0.13,0 -0.66,-0.133 -1.45,-0.133 l -16.2,0 -14.63,-0.129 c -5.01,0 -9.76,-0.133 -14.63,0 -3.69,0 -6.06,0.129 -7.25,0.129 -1.58,0 -2.63,0 -3.16,0.133 l -0.26,0 c -1.19,0 -1.45,-0.395 -1.45,-1.844 0,-1.184 0.13,-1.844 0.52,-2.109 0.4,-0.262 0.53,-0.262 2.64,-0.395 7.64,-0.262 8.83,-1.977 8.83,-12.254 l 0,-55.082 c 0,-4.348 -0.4,-8.039 -0.93,-9.223 -0.65,-1.582 -3.42,-2.769 -7.9,-3.035 -3.03,-0.261 -3.16,-0.261 -3.16,-2.238 0,-1.711 0.13,-1.977 1.58,-1.977 l 1.84,0 4.88,0.133 11.2,0.133 12.12,-0.133 c 3.3,0 6.2,-0.133 8.57,-0.133 l 2.11,0 c 1.05,0 1.31,0.266 1.31,1.715 l 0,1.055 c 0,1.316 -0.39,1.578 -2.76,1.711 -7.25,0.527 -10.94,1.055 -12.92,2.371 -1.58,0.922 -2.11,2.637 -2.11,6.984 l 0,28.993 6.72,0 6.99,-0.133 6.19,0 c 1.32,-0.133 2.5,-0.395 3.43,-0.922 0.66,-0.395 1.18,-0.793 1.45,-1.32 0.79,-1.317 1.45,-3.555 1.71,-5.93 0.27,-3.293 0.4,-3.555 1.71,-3.555 2.25,0 2.64,0.262 2.64,1.711 l 0,0.266 c 0,0.66 -0.13,1.578 -0.13,2.898 -0.13,3.164 -0.13,5.402 -0.13,6.852 l 0,2.504 c 0,4.609 0.13,9.621 0.26,11.859 0.13,0.922 0.13,1.582 0.13,1.977 0,1.316 -0.39,1.582 -2.11,1.582 -1.58,0 -1.97,-0.395 -2.1,-1.844 -0.4,-4.875 -1.45,-7.117 -3.7,-8.172 -2.63,-1.32 -5.4,-1.449 -17.52,-1.449 l -5.54,0 0,32.152 2.51,0.133 4.21,0 c 10.15,0 15.55,-0.527 18.59,-1.844 2.63,-1.055 5,-3.957 6.19,-7.512 l 0.92,-2.898 c 0.4,-0.926 0.79,-1.32 1.45,-1.32 1.85,0 3.03,0.527 3.03,1.449"
         style="fill:#ffffff;fill-opacity:1;fill-rule:nonzero;stroke:none"
         id="path44"
         inkscape:connector-curvature="0" /><path
         d="m 2336.58,334.75 c 0,-18.418 -15.67,-40.41 -38.84,-40.41 -11.26,0 -22.14,8.187 -22.14,24.344 0,18.418 15.67,40.414 38.83,40.414 11.26,0 22.15,-8.188 22.15,-24.348 z m -49.14,-21.262 c 0,-10.035 4.26,-14.554 10.3,-14.554 9.47,0 27,21.48 27,41.015 0,10.035 -4.26,14.551 -10.31,14.551 -9.47,0 -26.99,-21.477 -26.99,-41.012"
         style="fill:#ffffff;fill-opacity:1;fill-rule:evenodd;stroke:none"
         id="path46"
         inkscape:connector-curvature="0" /><path
         d="m 1353.19,362.359 c -1.15,-2.859 -31.41,-47.074 -31.41,-47.074 -3.48,-5.047 -11.48,-17.449 -13.03,-20.547 l -7.36,-0.398 c 0.64,30.34 4.73,77.582 4.73,87.504 0,9.781 -1.19,10.773 -11.56,10.773 l 0.01,4.625 c 4.53,-0.187 13.02,-0.344 21.36,-0.344 5.66,0 11.48,0.157 17.14,0.313 l 0.02,-4.543 c -10.71,-0.809 -12.79,-3.203 -13.39,-12.445 l -3.47,-58.594 c -0.14,-1.649 -0.27,-2.817 -0.3,-3.817 l 3.77,5.126 c 2.6,3.648 6.12,8.703 10.06,14.351 7.83,11.238 17.26,24.809 24.1,34.254 l 0.94,14.758 c 0.26,3.617 -2.44,6.316 -8.89,6.316 l 0.01,4.664 c 2.51,-0.23 9.73,-0.383 17.41,-0.383 7.55,0 11.8,0.157 16.36,0.313 l 0.02,-4.57 c -9.32,-0.321 -11.51,-2.075 -12.29,-15.254 l -2.52,-40.325 c -0.63,-8.796 -1.89,-19.957 -1.89,-21.843 0.71,-0.856 45.49,63.093 45.49,72.765 0,3.274 -2.66,5.094 -7.56,4.637 l -0.06,4.649 c 2.82,-0.215 8.47,-0.372 13.8,-0.372 6.28,0 11.15,0.157 14.13,0.313 l 0.03,-4.563 c -6.91,-0.328 -9.57,-2.562 -14.89,-11.796 -21.76,-37.829 -49.18,-74.243 -58.01,-86.219 l -7.34,-0.293 4.59,68.019"
         style="fill:#ffffff;fill-opacity:1;fill-rule:nonzero;stroke:none"
         id="path48"
         inkscape:connector-curvature="0" /><path
         d="m 1438.43,333.668 c -0.27,-0.965 -0.27,-1.141 -0.26,-1.18 l 0.26,1.18 z m 1.21,3.254 c -0.55,-1.387 -0.96,-2.465 -1.21,-3.254 l -0.7,-0.773 0.7,0.773 c 0.6,0.715 1.38,1.73 2.32,2.953 1.9,2.477 4.42,5.777 7.3,9.078 5.71,6.531 13.13,13.399 20.12,13.399 5.87,0 9.54,-3.914 9.54,-11.903 0,-6.383 -3.21,-15.8 -6.35,-23.871 -1.57,-4.047 -3.15,-7.797 -4.34,-10.711 -1.22,-3.008 -1.91,-4.898 -1.91,-5.425 0,-0.704 0.13,-1.008 1.48,-1.008 0.98,0 3.06,1.593 5.41,3.836 2.24,2.14 4.4,4.535 5.42,5.558 l 3.35,-2.711 c -6.61,-7.929 -15.97,-18.523 -25.52,-18.523 -3.95,0 -5.13,2.152 -5.13,5.129 0,2.093 1.04,5.312 2.51,8.992 1.48,3.715 3.46,8.039 5.43,12.43 3.97,8.843 7.81,17.679 7.81,22.363 0,2.848 -0.87,4.004 -3.69,4.004 -9.18,0 -29.21,-24.93 -36.48,-49.098 -0.64,-2.137 -2.49,-2.562 -6.04,-2.562 -3.64,0 -5.14,0.414 -5.14,2.613 0,1.437 3.69,11.031 8.05,22.328 4.4,11.434 9.64,24.93 12.94,34.449 2.83,8.114 5.87,16.496 8.19,23.27 2.35,6.851 3.9,11.851 3.9,13.347 0,1.184 -0.62,2.133 -3.46,2.434 -3.45,0.449 -5.05,1.106 -5.05,2.922 0,0.82 0.39,1.43 1.07,1.769 0.6,0.297 1.38,0.372 2.18,0.372 l 16.54,0 c 1.7,0 2.76,-0.414 2.76,-2.141 0,-1.277 -6.07,-19.426 -15.01,-42.625 -3.15,-8.195 -5.55,-13.828 -6.99,-17.414"
         style="fill:#ffffff;fill-opacity:1;fill-rule:evenodd;stroke:none"
         id="path50"
         inkscape:connector-curvature="0" /><path
         d="m 1526.13,318.742 c -0.43,-0.531 -0.79,-0.949 -1.22,-1.504 -0.86,-1.113 -1.95,-2.676 -3.2,-4.476 -9.8,-14.391 -17.24,-18.422 -23.91,-18.422 -5.53,0 -10.17,4.363 -10.17,12.848 0,12.523 14.25,50.652 42.78,50.652 2.18,0 3.84,-0.285 5.24,-0.567 l 1.86,-0.378 c 0.54,-0.094 1.03,-0.161 1.53,-0.161 0.35,0.024 0.62,0.176 0.92,0.446 0.31,0.285 0.59,0.664 0.9,1.113 l 0.46,0.664 0.54,0.641 c 0.39,0.398 0.91,0.761 1.62,0.761 0.57,0 2.03,-0.418 3.31,-1.089 1.23,-0.641 2.76,-1.766 2.76,-3.415 0,-0.878 -1.16,-4.187 -2.75,-8.445 -1.62,-4.371 -3.79,-9.98 -5.95,-15.672 -4.38,-11.496 -8.62,-22.992 -8.62,-25.496 0,-1.078 0.16,-1.527 0.32,-1.715 0.1,-0.129 0.29,-0.238 0.85,-0.238 0.59,0 1.54,0.543 2.8,1.68 1.19,1.09 2.5,2.554 3.78,4.051 1.28,1.503 2.52,3.007 3.57,4.136 0.52,0.571 1.02,1.067 1.47,1.426 0.39,0.324 0.92,0.676 1.45,0.676 1.5,0 2.14,-0.797 2.14,-1.985 0,-1.117 -12.38,-19.933 -22.77,-19.933 -3.65,0 -5.45,2.168 -5.45,6.39 0,3.313 1.52,7.536 2.97,10.993 0.73,1.738 1.46,3.316 2.01,4.543 l 0.65,1.507 c 0.2,0.801 0.15,0.922 0.11,0.969 z m 8.44,27.031 c 0,4.008 -2.02,7.469 -6.84,7.469 -13.81,0 -28.26,-25.789 -28.26,-43.062 0,-4.77 1.53,-5.578 3.85,-5.578 11.5,0 31.25,33.734 31.25,41.171"
         style="fill:#ffffff;fill-opacity:1;fill-rule:evenodd;stroke:none"
         id="path52"
         inkscape:connector-curvature="0" /><path
         d="m 1561.87,295.598 c -1.44,0 -2.14,0.906 -2.14,2.457 0,0.793 1.01,3.715 2.36,7.5 1.39,3.886 3.23,8.933 5.09,14.179 3.72,10.563 7.36,21.711 7.36,26.039 0,2.368 -0.77,3.059 -1.49,3.059 -0.96,0 -2.66,-1.344 -4.61,-3.414 -1.85,-1.977 -3.66,-4.293 -4.76,-5.625 -0.55,-0.625 -0.98,-1.223 -1.36,-1.656 -0.2,-0.227 -0.41,-0.453 -0.64,-0.625 -0.23,-0.168 -0.54,-0.336 -0.91,-0.336 -1.23,0 -1.67,1.183 -1.67,1.828 0,3.207 14.32,20.094 21.2,20.094 3.22,0 5.13,-1.567 5.13,-5.289 0,-1.926 -1.33,-7.637 -2.62,-12.911 l -1.78,-7.304 c -0.51,-2.098 -0.8,-3.442 -0.8,-3.727 0.53,0.399 0.87,1.012 1.34,1.785 2.13,3.715 5.96,10.504 10.17,16.375 4.12,5.739 8.9,11.071 12.97,11.071 3.63,0 5.61,-3.446 5.61,-7.969 0,-5.418 -1.95,-8.281 -4.98,-8.281 -3.04,0 -4.13,1.836 -4.82,3.429 l -0.46,1.094 c -0.15,0.34 -0.28,0.621 -0.44,0.844 -0.27,0.418 -0.57,0.617 -1.05,0.617 -2.23,0 -9.75,-8.703 -24.07,-40.836 l -4.25,-9.609 c -0.38,-0.828 -0.7,-1.532 -1.09,-2 -0.47,-0.555 -1.04,-0.789 -1.78,-0.789 l -5.51,0"
         style="fill:#ffffff;fill-opacity:1;fill-rule:nonzero;stroke:none"
         id="path54"
         inkscape:connector-curvature="0" /><path
         d="m 1628.26,303.344 c 4.11,0 8.44,2.215 11.97,4.527 1.75,1.152 3.28,2.305 4.43,3.168 l 1.47,1.074 c 0.69,0.407 0.92,0.524 1.19,0.524 1.25,0 1.82,-0.715 1.82,-1.985 0,-1.992 -13.75,-16.312 -27.02,-16.312 -10.03,0 -16.94,6.957 -16.94,17.574 0,22.898 25.81,47.184 43.55,47.184 8.2,0 13.01,-5.125 13.01,-10.645 0,-12.785 -20.63,-16.945 -30.01,-16.945 -3.25,0 -4.85,0.137 -6.71,0.281 -2.81,-4.383 -6.43,-10.559 -6.43,-18.461 0,-5.941 3.5,-9.984 9.67,-9.984 z m 18.43,51.156 c -7.21,0 -15.9,-12.781 -18.76,-17.742 14.09,0.398 23.55,4.965 23.55,12.48 0,2.848 -1.97,5.262 -4.79,5.262"
         style="fill:#ffffff;fill-opacity:1;fill-rule:evenodd;stroke:none"
         id="path56"
         inkscape:connector-curvature="0" /><path
         d="m 1775.6,362.359 c -1.15,-2.859 -31.41,-47.074 -31.41,-47.074 -3.47,-5.047 -11.47,-17.449 -13.02,-20.547 l -7.37,-0.398 c 0.65,30.34 4.74,77.582 4.74,87.504 0,9.781 -1.19,10.773 -11.56,10.773 l 0,4.625 c 4.54,-0.187 13.02,-0.344 21.36,-0.344 5.66,0 11.48,0.157 17.15,0.313 l 0.01,-4.543 c -10.71,-0.809 -12.78,-3.203 -13.39,-12.445 l -3.47,-58.594 c -0.13,-1.649 -0.27,-2.817 -0.3,-3.817 l 3.77,5.126 c 2.6,3.648 6.13,8.703 10.07,14.351 7.82,11.238 17.25,24.809 24.1,34.254 l 0.93,14.758 c 0.27,3.617 -2.44,6.316 -8.89,6.316 l 0.01,4.664 c 2.51,-0.23 9.73,-0.383 17.42,-0.383 7.55,0 11.79,0.157 16.35,0.313 l 0.02,-4.57 c -9.32,-0.321 -11.51,-2.075 -12.28,-15.254 l -2.53,-40.325 c -0.63,-8.796 -1.88,-19.957 -1.88,-21.843 0.71,-0.856 45.48,63.093 45.48,72.765 0,3.274 -2.66,5.094 -7.55,4.637 l -0.06,4.649 c 2.81,-0.215 8.46,-0.372 13.79,-0.372 6.29,0 11.15,0.157 14.14,0.313 l 0.03,-4.563 c -6.92,-0.328 -9.58,-2.562 -14.9,-11.796 -21.75,-37.829 -49.18,-74.243 -58,-86.219 l -7.34,-0.293 4.58,68.019"
         style="fill:#ffffff;fill-opacity:1;fill-rule:nonzero;stroke:none"
         id="path58"
         inkscape:connector-curvature="0" /><path
         d="m 1853.69,318.742 c -0.44,-0.531 -0.79,-0.949 -1.22,-1.504 -0.86,-1.113 -1.95,-2.676 -3.21,-4.476 -9.8,-14.391 -17.24,-18.422 -23.9,-18.422 -5.54,0 -10.17,4.363 -10.17,12.848 0,12.523 14.24,50.652 42.77,50.652 2.19,0 3.85,-0.285 5.24,-0.567 l 1.86,-0.378 c 0.55,-0.094 1.03,-0.161 1.54,-0.161 0.35,0.024 0.61,0.176 0.91,0.446 0.31,0.285 0.59,0.664 0.9,1.113 l 0.47,0.664 0.53,0.641 c 0.39,0.398 0.92,0.761 1.63,0.761 0.56,0 2.02,-0.418 3.3,-1.089 1.23,-0.641 2.77,-1.766 2.77,-3.415 0,-0.878 -1.17,-4.187 -2.75,-8.445 -1.63,-4.371 -3.79,-9.98 -5.96,-15.672 -4.37,-11.496 -8.61,-22.992 -8.61,-25.496 0,-1.078 0.16,-1.527 0.31,-1.715 0.1,-0.129 0.29,-0.238 0.85,-0.238 0.59,0 1.54,0.543 2.8,1.68 1.2,1.09 2.5,2.554 3.78,4.051 1.29,1.503 2.52,3.007 3.57,4.136 0.52,0.571 1.02,1.067 1.47,1.426 0.4,0.324 0.92,0.676 1.46,0.676 1.5,0 2.13,-0.797 2.13,-1.985 0,-1.117 -12.38,-19.933 -22.77,-19.933 -3.65,0 -5.44,2.168 -5.44,6.39 0,3.313 1.51,7.536 2.97,10.993 0.72,1.738 1.46,3.316 2.01,4.543 l 0.64,1.507 c 0.2,0.801 0.15,0.922 0.12,0.969 z m 8.43,27.031 c 0,4.008 -2.02,7.469 -6.84,7.469 -13.81,0 -28.25,-25.789 -28.25,-43.062 0,-4.77 1.52,-5.578 3.84,-5.578 11.5,0 31.25,33.734 31.25,41.171"
         style="fill:#ffffff;fill-opacity:1;fill-rule:evenodd;stroke:none"
         id="path60"
         inkscape:connector-curvature="0" /><path
         d="m 1909.18,336.602 c 0.47,0.359 1.02,0.894 1.78,1.894 0.83,1.106 2.16,2.93 3.88,5.051 1.71,2.125 3.81,4.551 6.16,6.84 4.66,4.543 10.47,8.711 16.37,8.711 6.25,0 10.8,-4.762 10.8,-11.274 0,-5.859 -3.78,-15.187 -7.46,-23.39 -1.85,-4.125 -3.71,-8.016 -5.09,-11.125 -1.43,-3.188 -2.25,-5.332 -2.25,-6.121 0,-1.04 0.46,-1.325 0.85,-1.325 2.31,0 9.32,5.676 12.4,8.766 l 3.22,-2.395 c -8.8,-9.8 -21.43,-17.894 -27.91,-17.894 -2.91,0 -4.5,1.738 -4.5,4.344 0,0.875 1.31,3.808 3.02,7.5 1.77,3.824 4.14,8.757 6.5,13.886 4.76,10.348 9.38,21.184 9.38,25.391 0,3.609 -2.1,4.629 -4.31,4.629 -9.51,0 -26.69,-22.25 -34.45,-43.93 l -2.3,-6.621 c -0.57,-1.57 -1.03,-2.672 -1.56,-3.461 l -0.91,-0.41 -1.03,-0.051 -2.91,-0.019 c -1.87,0 -2.96,0.035 -3.59,0.148 -0.72,0.129 -1.23,0.465 -1.23,1.203 0,1.383 1.1,4.727 2.6,8.891 1.54,4.234 3.59,9.515 5.64,14.914 4.13,10.875 8.14,21.965 8.14,26.125 0,0.719 -0.15,0.949 -0.22,1.023 -1.85,0.145 -4.93,-2.34 -8.18,-5.261 l -4.24,-3.848 c -0.61,-0.543 -1.14,-0.992 -1.56,-1.305 -0.75,-0.488 -1.01,-0.625 -1.3,-0.625 -1.15,0 -1.82,0.922 -1.82,2.141 0,2.883 19.2,20.094 26.08,20.094 3.37,0 5.29,-2.039 5.29,-4.977 0,-2.516 -1.4,-6.777 -2.72,-10.441 l -1.84,-4.957 -0.6,-1.688 -0.13,-0.433"
         style="fill:#ffffff;fill-opacity:1;fill-rule:nonzero;stroke:none"
         id="path62"
         inkscape:connector-curvature="0" /><path
         d="m 1996.48,318.742 c -0.44,-0.531 -0.79,-0.949 -1.22,-1.504 -0.86,-1.113 -1.95,-2.676 -3.21,-4.476 -9.8,-14.391 -17.23,-18.422 -23.9,-18.422 -5.53,0 -10.17,4.363 -10.17,12.848 0,12.523 14.24,50.652 42.77,50.652 2.19,0 3.85,-0.285 5.25,-0.567 l 1.86,-0.378 c 0.54,-0.094 1.02,-0.161 1.53,-0.161 0.35,0.024 0.62,0.176 0.91,0.446 0.32,0.285 0.59,0.664 0.9,1.113 l 0.47,0.664 0.53,0.641 c 0.39,0.398 0.92,0.761 1.63,0.761 0.56,0 2.02,-0.418 3.3,-1.089 1.23,-0.641 2.77,-1.766 2.77,-3.415 0,-0.878 -1.17,-4.187 -2.75,-8.445 -1.62,-4.371 -3.79,-9.98 -5.95,-15.672 -4.38,-11.496 -8.62,-22.992 -8.62,-25.496 0,-1.078 0.16,-1.527 0.31,-1.715 0.11,-0.129 0.29,-0.238 0.86,-0.238 0.59,0 1.54,0.543 2.79,1.68 1.2,1.09 2.5,2.554 3.78,4.051 1.29,1.503 2.53,3.007 3.57,4.136 0.53,0.571 1.02,1.067 1.47,1.426 0.4,0.324 0.92,0.676 1.46,0.676 1.5,0 2.14,-0.797 2.14,-1.985 0,-1.117 -12.39,-19.933 -22.77,-19.933 -3.66,0 -5.45,2.168 -5.45,6.39 0,3.313 1.52,7.536 2.97,10.993 0.73,1.738 1.46,3.316 2.01,4.543 l 0.65,1.507 c 0.2,0.801 0.15,0.922 0.11,0.969 z m 8.43,27.031 c 0,4.008 -2.02,7.469 -6.83,7.469 -13.82,0 -28.26,-25.789 -28.26,-43.062 0,-4.77 1.53,-5.578 3.84,-5.578 11.5,0 31.25,33.734 31.25,41.171"
         style="fill:#ffffff;fill-opacity:1;fill-rule:evenodd;stroke:none"
         id="path64"
         inkscape:connector-curvature="0" /><path
         d="m 2054.9,336.602 c 0.47,0.359 1.02,0.894 1.78,1.894 0.84,1.106 2.17,2.93 3.88,5.051 1.71,2.125 3.81,4.551 6.16,6.84 4.66,4.543 10.47,8.711 16.37,8.711 6.26,0 10.8,-4.762 10.8,-11.274 0,-5.859 -3.78,-15.187 -7.46,-23.39 -1.85,-4.125 -3.7,-8.016 -5.09,-11.125 -1.43,-3.188 -2.25,-5.332 -2.25,-6.121 0,-1.04 0.46,-1.325 0.85,-1.325 2.31,0 9.31,5.676 12.4,8.766 l 3.23,-2.395 c -8.81,-9.8 -21.44,-17.894 -27.91,-17.894 -2.92,0 -4.51,1.738 -4.51,4.344 0,0.875 1.31,3.808 3.02,7.5 1.78,3.824 4.14,8.757 6.5,13.886 4.76,10.348 9.38,21.184 9.38,25.391 0,3.609 -2.1,4.629 -4.32,4.629 -9.5,0 -26.68,-22.25 -34.43,-43.93 l -2.31,-6.621 c -0.57,-1.57 -1.03,-2.672 -1.55,-3.461 l -0.92,-0.41 -1.03,-0.051 -2.91,-0.019 c -1.87,0 -2.96,0.035 -3.59,0.148 -0.72,0.129 -1.22,0.465 -1.22,1.203 0,1.383 1.09,4.727 2.6,8.891 1.53,4.234 3.58,9.515 5.63,14.914 4.13,10.875 8.14,21.965 8.14,26.125 0,0.719 -0.14,0.949 -0.22,1.023 -1.85,0.145 -4.92,-2.34 -8.18,-5.261 l -4.24,-3.848 c -0.61,-0.543 -1.14,-0.992 -1.56,-1.305 -0.75,-0.488 -1.01,-0.625 -1.3,-0.625 -1.14,0 -1.82,0.922 -1.82,2.141 0,2.883 19.2,20.094 26.08,20.094 3.37,0 5.29,-2.039 5.29,-4.977 0,-2.516 -1.4,-6.777 -2.72,-10.441 l -1.85,-4.957 -0.59,-1.688 -0.13,-0.433"
         style="fill:#ffffff;fill-opacity:1;fill-rule:nonzero;stroke:none"
         id="path66"
         inkscape:connector-curvature="0" /><path
         d="m 2122.84,312.383 c -1,0.387 -1.86,0.828 -2.63,1.273 l -1.61,1.02 c -4.1,-2.531 -4.62,-3.571 -4.62,-4.653 0,-1.523 2.01,-3.418 5.83,-5.707 3.69,-2.214 8.62,-4.554 13.55,-7.058 9.66,-4.906 20.16,-10.778 20.16,-17.946 0,-9.773 -11.17,-20.886 -36.79,-20.886 -16.34,0 -26.71,8.281 -26.71,16.633 0,7 6.06,12.695 23.79,18.933 l -1.89,1.207 c -1.26,0.828 -2.64,1.821 -3.94,2.961 -2.57,2.266 -4.89,5.246 -4.89,8.871 0,3.321 1.79,5.403 4.17,7.071 2.1,1.464 4.79,2.683 7.41,4.273 -3.95,4.633 -5.28,10.437 -5.28,14.328 0,14.266 12.3,26.395 26.71,26.395 5.76,0 9.6,-1.789 12.19,-3.594 0.64,-0.449 1.2,-0.895 1.69,-1.316 l 1.27,-1.126 0.86,-0.738 1.6,0.414 3,1.414 c 2.28,1.024 5.13,2.11 7.58,2.11 3.82,0 6.08,-2.168 6.08,-5.606 0,-3.054 -2.52,-4.66 -5.29,-4.66 -1.6,0 -3.45,0.418 -5.04,0.809 l -2.18,0.539 c -0.66,0.148 -1.14,0.226 -1.44,0.226 -0.7,-2.582 0.4,-3.683 0.4,-10.929 0,-9.703 -7.91,-25.61 -25.92,-25.61 -3.47,0 -6.04,0.567 -8.06,1.352 z m -1.07,-48.414 c 13.28,0 20.85,5.054 20.85,10.144 0,4.004 -3.62,6.856 -8.7,9.434 -2.51,1.277 -5.26,2.433 -7.88,3.594 -2.49,1.105 -4.9,2.23 -6.87,3.484 -11.36,-4.699 -16.68,-8.465 -16.68,-14.621 0,-6.43 8.02,-12.035 19.28,-12.035 z m 7.87,52.605 c 11.58,0 17.86,16.758 17.86,24.949 0,6.59 -3.32,12.036 -9.67,12.036 -11.31,0 -18.18,-13.227 -18.18,-25.11 0,-7.156 3.44,-11.875 9.99,-11.875"
         style="fill:#ffffff;fill-opacity:1;fill-rule:evenodd;stroke:none"
         id="path68"
         inkscape:connector-curvature="0" /><path
         d="m 2203.41,318.742 c -0.44,-0.531 -0.79,-0.949 -1.22,-1.504 -0.86,-1.113 -1.96,-2.676 -3.21,-4.476 -9.8,-14.391 -17.24,-18.422 -23.9,-18.422 -5.54,0 -10.17,4.363 -10.17,12.848 0,12.523 14.23,50.652 42.77,50.652 2.19,0 3.85,-0.285 5.24,-0.567 l 1.86,-0.378 c 0.54,-0.094 1.02,-0.161 1.54,-0.161 0.34,0.024 0.61,0.176 0.91,0.446 0.31,0.285 0.59,0.664 0.9,1.113 l 0.46,0.664 0.53,0.641 c 0.4,0.398 0.93,0.761 1.63,0.761 0.57,0 2.03,-0.418 3.31,-1.089 1.23,-0.641 2.77,-1.766 2.77,-3.415 0,-0.878 -1.17,-4.187 -2.76,-8.445 -1.62,-4.371 -3.78,-9.98 -5.95,-15.672 -4.38,-11.496 -8.62,-22.992 -8.62,-25.496 0,-1.078 0.17,-1.527 0.32,-1.715 0.1,-0.129 0.29,-0.238 0.85,-0.238 0.59,0 1.54,0.543 2.8,1.68 1.2,1.09 2.5,2.554 3.78,4.051 1.29,1.503 2.52,3.007 3.57,4.136 0.52,0.571 1.02,1.067 1.47,1.426 0.4,0.324 0.92,0.676 1.45,0.676 1.51,0 2.14,-0.797 2.14,-1.985 0,-1.117 -12.38,-19.933 -22.77,-19.933 -3.65,0 -5.45,2.168 -5.45,6.39 0,3.313 1.52,7.536 2.98,10.993 0.73,1.738 1.45,3.316 2,4.543 l 0.65,1.507 c 0.2,0.801 0.15,0.922 0.12,0.969 z m 8.43,27.031 c 0,4.008 -2.02,7.469 -6.84,7.469 -13.81,0 -28.25,-25.789 -28.25,-43.062 0,-4.77 1.52,-5.578 3.84,-5.578 11.5,0 31.25,33.734 31.25,41.171"
         style="fill:#ffffff;fill-opacity:1;fill-rule:evenodd;stroke:none"
         id="path70"
         inkscape:connector-curvature="0" /><path
         d="m 2440.29,362.359 c -1.16,-2.859 -31.42,-47.074 -31.42,-47.074 -3.47,-5.047 -11.47,-17.449 -13.02,-20.547 l -7.37,-0.398 c 0.65,30.34 4.74,77.582 4.74,87.504 0,9.781 -1.19,10.773 -11.56,10.773 l 0.01,4.625 c 4.53,-0.187 13.02,-0.344 21.35,-0.344 5.67,0 11.49,0.157 17.15,0.313 l 0.01,-4.543 c -10.71,-0.809 -12.78,-3.203 -13.38,-12.445 l -3.47,-58.594 c -0.14,-1.649 -0.28,-2.817 -0.31,-3.817 l 3.77,5.126 c 2.6,3.648 6.13,8.703 10.07,14.351 7.83,11.238 17.25,24.809 24.1,34.254 l 0.93,14.758 c 0.27,3.617 -2.44,6.316 -8.89,6.316 l 0.01,4.664 c 2.52,-0.23 9.73,-0.383 17.42,-0.383 7.55,0 11.8,0.157 16.36,0.313 l 0.01,-4.57 c -9.32,-0.321 -11.51,-2.075 -12.28,-15.254 L 2452,337.062 c -0.63,-8.796 -1.89,-19.957 -1.89,-21.843 0.71,-0.856 45.49,63.093 45.49,72.765 0,3.274 -2.67,5.094 -7.56,4.637 l -0.06,4.649 c 2.82,-0.215 8.46,-0.372 13.79,-0.372 6.29,0 11.16,0.157 14.14,0.313 l 0.03,-4.563 c -6.92,-0.328 -9.58,-2.562 -14.9,-11.796 -21.75,-37.829 -49.18,-74.243 -58,-86.219 l -7.34,-0.293 4.59,68.019"
         style="fill:#ffffff;fill-opacity:1;fill-rule:nonzero;stroke:none"
         id="path72"
         inkscape:connector-curvature="0" /><path
         d="m 2518.72,318.742 c -0.43,-0.531 -0.79,-0.949 -1.22,-1.504 -0.86,-1.113 -1.95,-2.676 -3.2,-4.476 -9.81,-14.391 -17.24,-18.422 -23.91,-18.422 -5.53,0 -10.17,4.363 -10.17,12.848 0,12.523 14.24,50.652 42.78,50.652 2.18,0 3.84,-0.285 5.24,-0.567 l 1.86,-0.378 c 0.54,-0.094 1.02,-0.161 1.53,-0.161 0.35,0.024 0.62,0.176 0.92,0.446 0.31,0.285 0.59,0.664 0.9,1.113 l 0.46,0.664 0.54,0.641 c 0.39,0.398 0.91,0.761 1.62,0.761 0.57,0 2.03,-0.418 3.31,-1.089 1.23,-0.641 2.77,-1.766 2.77,-3.415 0,-0.878 -1.17,-4.187 -2.76,-8.445 -1.62,-4.371 -3.78,-9.98 -5.95,-15.672 -4.38,-11.496 -8.62,-22.992 -8.62,-25.496 0,-1.078 0.16,-1.527 0.32,-1.715 0.1,-0.129 0.29,-0.238 0.85,-0.238 0.59,0 1.54,0.543 2.8,1.68 1.19,1.09 2.5,2.554 3.78,4.051 1.28,1.503 2.52,3.007 3.56,4.136 0.53,0.571 1.03,1.067 1.48,1.426 0.39,0.324 0.91,0.676 1.45,0.676 1.5,0 2.14,-0.797 2.14,-1.985 0,-1.117 -12.39,-19.933 -22.77,-19.933 -3.65,0 -5.45,2.168 -5.45,6.39 0,3.313 1.52,7.536 2.97,10.993 0.73,1.738 1.46,3.316 2.01,4.543 l 0.65,1.507 c 0.2,0.801 0.14,0.922 0.11,0.969 z m 8.44,27.031 c 0,4.008 -2.02,7.469 -6.84,7.469 -13.82,0 -28.26,-25.789 -28.26,-43.062 0,-4.77 1.53,-5.578 3.85,-5.578 11.5,0 31.25,33.734 31.25,41.171"
         style="fill:#ffffff;fill-opacity:1;fill-rule:evenodd;stroke:none"
         id="path74"
         inkscape:connector-curvature="0" /><path
         d="m 2550.96,340.711 1.31,1.309 c 3.97,4.425 14.29,15.82 21.63,15.82 3.29,0 4.97,-2.43 4.97,-4.82 0,-6.082 -4.17,-17.219 -8.24,-27.243 -2.04,-5.039 -4.09,-9.851 -5.63,-13.687 -1.56,-3.918 -2.51,-6.613 -2.51,-7.578 0,-1.02 0.15,-1.168 1.17,-1.168 1.34,0 3.8,1.621 6.46,3.883 2.58,2.187 5.08,4.722 6.4,6.128 l 0.44,0.469 3.08,-2.304 -0.59,-0.59 c -1.45,-1.453 -3.01,-3.2 -4.7,-5.004 -1.71,-1.824 -3.56,-3.711 -5.56,-5.41 -4.01,-3.414 -8.74,-6.176 -14.35,-6.176 -3.9,0 -5.13,1.476 -5.13,3.871 0,4.988 4.18,15.324 8.24,25.027 2.05,4.883 4.09,9.676 5.63,13.66 1.55,4.028 2.51,7.071 2.51,8.563 0,1.094 -0.38,1.48 -1.32,1.48 -1.25,0 -3.29,-1.382 -5.45,-3.3 -2.1,-1.86 -4.05,-3.973 -5.07,-4.993 l -0.49,-0.488 -2.8,2.551 z m 30.02,56.5 c 3.87,0 7.03,-3.156 7.03,-7.023 0,-3.864 -3.16,-7.02 -7.03,-7.02 -3.86,0 -7.02,3.156 -7.02,7.02 0,3.867 3.16,7.023 7.02,7.023"
         style="fill:#ffffff;fill-opacity:1;fill-rule:evenodd;stroke:none"
         id="path76"
         inkscape:connector-curvature="0" /><path
         d="m 2614.57,347.832 0,0 z m 0.29,-0.152 c 0.87,0.879 1.53,1.386 2.32,1.996 1.61,1.246 3.71,2.906 6.12,4.57 4.82,3.316 11.05,6.742 17.27,6.742 6.11,0 12.22,-3.992 12.22,-11.433 0,-11.989 -16.45,-19.625 -24.82,-22.836 0.67,-4.91 2.99,-20.395 6.84,-34.918 4.1,-15.504 9.68,-28.778 16.15,-28.778 2.11,0 2.59,1.067 2.59,1.481 -0.35,0.996 -0.53,1.277 -0.67,1.492 l -0.52,0.785 0.89,0.301 0.8,0.234 c 0.31,0.071 0.63,0.118 1.01,0.118 1.18,0 2.76,-0.954 2.76,-3.403 0,-2.586 -2.99,-5.605 -7.8,-5.605 -13.38,0 -28.07,27.484 -32.89,64.015 l -5.9,-2.003 -6.01,-1.711 -4.4,-13.403 c -1.33,-3.988 -2.4,-7.113 -2.91,-8.051 -0.45,-1.132 -1.55,-1.675 -2.86,-1.675 l -5.67,0 c -2.36,0 -3.09,1.027 -3.09,2.297 0,1.582 4.66,15.492 16.42,49.066 6.07,17.32 9.89,28.027 12.19,34.742 2.33,6.777 3.05,9.348 3.05,10.535 0,0.676 -0.26,1.211 -1.66,1.629 -1.49,0.438 -3.99,0.637 -8.01,0.637 l -0.72,0 0,4.598 22.61,0 c 1.15,0 2.3,-0.204 2.3,-1.825 0,-1.589 -1.34,-5.218 -2.56,-8.445 l -12.92,-34.961 -1.45,-4.094 -0.53,-1.609 c -0.37,-0.723 -0.28,-0.758 -0.17,-0.758 l 0.02,0.27 z m -7.66,-22.598 c 12.02,3.281 34.69,12.945 34.69,23.371 0,2.75 -1.57,4.789 -5.26,4.789 -5.91,0 -20.74,-10.422 -24.58,-14.164 l -4.85,-13.996"
         style="fill:#ffffff;fill-opacity:1;fill-rule:evenodd;stroke:none"
         id="path78"
         inkscape:connector-curvature="0" /><path
         d="m 2692.01,318.742 c -0.44,-0.531 -0.79,-0.949 -1.22,-1.504 -0.86,-1.113 -1.95,-2.676 -3.2,-4.476 -9.81,-14.391 -17.24,-18.422 -23.91,-18.422 -5.54,0 -10.17,4.363 -10.17,12.848 0,12.523 14.24,50.652 42.77,50.652 2.19,0 3.85,-0.285 5.25,-0.567 l 1.85,-0.378 c 0.55,-0.094 1.03,-0.161 1.54,-0.161 0.35,0.024 0.62,0.176 0.92,0.446 0.3,0.285 0.59,0.664 0.89,1.113 l 0.47,0.664 0.53,0.641 c 0.39,0.398 0.92,0.761 1.63,0.761 0.56,0 2.02,-0.418 3.3,-1.089 1.23,-0.641 2.77,-1.766 2.77,-3.415 0,-0.878 -1.16,-4.187 -2.75,-8.445 -1.63,-4.371 -3.79,-9.98 -5.96,-15.672 -4.37,-11.496 -8.61,-22.992 -8.61,-25.496 0,-1.078 0.16,-1.527 0.31,-1.715 0.11,-0.129 0.29,-0.238 0.86,-0.238 0.59,0 1.54,0.543 2.79,1.68 1.2,1.09 2.5,2.554 3.78,4.051 1.29,1.503 2.53,3.007 3.57,4.136 0.53,0.571 1.03,1.067 1.47,1.426 0.4,0.324 0.92,0.676 1.46,0.676 1.5,0 2.14,-0.797 2.14,-1.985 0,-1.117 -12.39,-19.933 -22.78,-19.933 -3.65,0 -5.44,2.168 -5.44,6.39 0,3.313 1.52,7.536 2.97,10.993 0.73,1.738 1.46,3.316 2.01,4.543 l 0.64,1.507 c 0.2,0.801 0.15,0.922 0.12,0.969 z m 8.43,27.031 c 0,4.008 -2.02,7.469 -6.83,7.469 -13.82,0 -28.26,-25.789 -28.26,-43.062 0,-4.77 1.53,-5.578 3.84,-5.578 11.5,0 31.25,33.734 31.25,41.171"
         style="fill:#ffffff;fill-opacity:1;fill-rule:evenodd;stroke:none"
         id="path80"
         inkscape:connector-curvature="0" /><path
         d="m 2757.34,357.824 5.84,0.016 c 2,0 2.62,-1.727 2.62,-4.504 0,-2.648 -1.36,-4.504 -2.93,-4.504 l -7.4,0 c -1.33,0 -2.06,-0.488 -2.79,-2.52 l -12.44,-32.757 -1.31,-3.59 c -0.43,-1.223 -0.7,-2.207 -0.7,-2.777 0,-0.579 0.33,-1.325 2.12,-1.325 1.49,0 5.41,2.739 9.42,5.836 l 5.26,4.113 1.88,1.383 0.68,0.418 c 0.4,0.176 0.55,0.219 0.71,0.219 1.25,0 1.99,-1.012 1.99,-1.984 0,-1.528 -3,-4.364 -10.95,-11.407 -6.18,-5.535 -14.54,-10.101 -19.54,-10.101 -4.01,0 -5.77,2.512 -5.77,4.816 0,2.367 2.13,8.211 3.35,11.59 l 13.08,34.652 0.64,1.727 c 0.17,0.52 0.26,0.898 0.26,1.168 0,0.047 -0.16,0.539 -1.64,0.539 l -6.46,0 c -1.17,0 -2.14,0.375 -2.14,1.512 0,0.41 0.14,0.734 0.27,0.992 0.11,0.223 0.25,0.461 0.4,0.828 l 1.89,5.676 10.29,0 c 0.84,0 1.35,0.172 1.86,1.305 l 4.71,10.359 c 0.19,0.582 0.67,0.844 1.39,1.058 0.72,0.219 1.86,0.418 3.75,0.657 l 2.61,0.429 c 0.82,0.125 1.48,0.207 1.9,0.207 0.87,0 1.67,-0.796 1.67,-1.667 0,-0.239 -0.07,-0.504 -0.14,-0.731 l -0.3,-0.863 -0.87,-2.285 -2.99,-7.571 -0.19,-0.734 -0.03,-0.18"
         style="fill:#ffffff;fill-opacity:1;fill-rule:nonzero;stroke:none"
         id="path82"
         inkscape:connector-curvature="0" /><path
         d="m 2831.05,334.75 c 0,-18.418 -15.67,-40.41 -38.84,-40.41 -11.25,0 -22.14,8.187 -22.14,24.344 0,18.418 15.67,40.414 38.84,40.414 11.25,0 22.14,-8.188 22.14,-24.348 z m -49.14,-21.262 c 0,-10.035 4.26,-14.554 10.3,-14.554 9.48,0 27,21.48 27,41.015 0,10.035 -4.26,14.551 -10.3,14.551 -9.47,0 -27,-21.477 -27,-41.012"
         style="fill:#ffffff;fill-opacity:1;fill-rule:evenodd;stroke:none"
         id="path84"
         inkscape:connector-curvature="0" /><path
         d="m 1111.9,375.871 0.4,0.902 c 1.57,3.629 3.78,9.461 6.04,14.387 1.14,2.469 2.31,4.75 3.43,6.418 1.05,1.555 2.28,2.942 3.63,2.942 1.34,0 2.29,-0.379 3.16,-0.922 0.78,-0.489 1.53,-1.137 2.56,-1.789 1.92,-1.207 5.01,-2.489 11.92,-2.489 l 43.31,0 c 9.57,0 13.15,0.778 17.22,3.492 1.28,0.961 2.38,1.551 3.57,1.551 1.5,0 2.3,-1.136 2.3,-2.929 0,-1.817 -1.59,-12.118 -3.79,-23.579 -0.36,-2.871 -1.13,-3.289 -3.39,-3.289 -2.33,0 -3.24,0.829 -3.24,3.559 0,11.762 -4.74,15.187 -17.87,15.34 -6.01,0 -7.85,-1.219 -10.17,-10.324 l -14.33,-54.657 c -2.22,-8.394 -4.23,-16.312 -4.23,-20.289 0,-2.769 3.64,-3.988 13.17,-4.316 l -0.04,-4.609 c -10.17,0.168 -15.69,0.328 -24.19,0.328 -6.13,0 -11.33,-0.16 -20.62,-0.317 l 0,4.543 c 12.47,0.985 14.94,1.824 17.66,11.961 l 17.01,62.996 c 0.95,3.641 2.02,8.43 2.02,11.157 0,2.624 -0.25,3.527 -11.24,3.527 -11.61,0 -17.39,-1.485 -28.28,-13.926 l -6.01,0.332"
         style="fill:#ffffff;fill-opacity:1;fill-rule:nonzero;stroke:none"
         id="path86"
         inkscape:connector-curvature="0" /><path
         d="m 1205.85,303.344 c 4.1,0 8.44,2.215 11.97,4.527 1.75,1.152 3.27,2.305 4.43,3.168 l 1.47,1.074 c 0.68,0.407 0.92,0.524 1.19,0.524 1.25,0 1.82,-0.715 1.82,-1.985 0,-1.992 -13.76,-16.312 -27.02,-16.312 -10.03,0 -16.95,6.957 -16.95,17.574 0,22.898 25.82,47.184 43.56,47.184 8.19,0 13.01,-5.125 13.01,-10.645 0,-12.785 -20.63,-16.945 -30.02,-16.945 -3.24,0 -4.85,0.137 -6.71,0.281 -2.8,-4.383 -6.42,-10.559 -6.42,-18.461 0,-5.941 3.5,-9.984 9.67,-9.984 z m 18.43,51.156 c -7.21,0 -15.91,-12.781 -18.77,-17.742 14.09,0.398 23.56,4.965 23.56,12.48 0,2.848 -1.98,5.262 -4.79,5.262"
         style="fill:#ffffff;fill-opacity:1;fill-rule:evenodd;stroke:none"
         id="path88"
         inkscape:connector-curvature="0" /><path
         d="m 1845.88,369.094 34.5469,0 0,5.66406 -34.5469,0 0,-5.66406 z"
         style="fill:#ffffff;fill-opacity:1;fill-rule:nonzero;stroke:none"
         id="path90"
         inkscape:connector-curvature="0" /><path
         d="m 1677.75,501.07 0,4.149 c 0,2.418 -1.38,3.453 -5.53,3.453 -6.57,0.348 -13.13,1.726 -17.28,3.801 -4.49,2.074 -6.56,5.183 -10.71,13.82 l -4.49,9.332 -81.89,191.426 c -3.11,6.906 -3.8,7.254 -8.3,7.254 l -4.14,0 c -3.46,0 -4.49,0 -5.18,-1.035 -0.69,-1.383 -2.08,-3.458 -3.46,-6.567 l -80.16,-189.699 c -5.53,-13.473 -7.61,-17.621 -11.41,-21.422 -1.38,-1.727 -3.45,-3.109 -5.18,-3.801 -3.11,-1.383 -6.91,-2.418 -14.51,-3.453 -3.11,-0.348 -3.8,-1.383 -3.8,-5.531 0,-4.492 0.69,-5.184 4.49,-5.184 l 6.91,0 c 13.82,0 23.84,0.692 29.71,0.692 5.19,0 15.56,-0.692 31.11,-0.692 l 6.91,0 c 4.49,0 5.52,1.039 5.52,5.532 0,4.835 -1.03,5.875 -7.25,5.875 -14.52,0.343 -21.77,3.8 -21.77,10.71 0,2.762 2.07,10.711 4.49,16.93 l 16.24,43.535 83.97,0 17.27,-44.57 3.11,-7.949 c 0.69,-1.383 1.38,-3.11 1.73,-5.184 0.69,-2.418 1.03,-4.144 1.03,-5.18 0,-4.148 -4.83,-6.566 -14.85,-7.601 -3.46,-0.348 -5.88,-0.348 -7.26,-0.691 -1.03,0 -2.07,-0.348 -2.77,-1.04 -1.03,-0.691 -1.37,-1.726 -1.37,-3.109 l 0,-3.457 c 0,-3.109 0.68,-3.801 3.8,-3.801 l 4.14,0 8.64,0.348 32.48,0 c 21.77,0 33.86,-0.348 36.63,-0.348 l 7.26,0 c 4.49,0 5.87,0.692 5.87,3.457 z m -102.63,96.403 -70.14,0 34.21,89.492 35.93,-89.492"
         style="fill:#ffffff;fill-opacity:1;fill-rule:evenodd;stroke:none"
         id="path92"
         inkscape:connector-curvature="0" /><path
         d="m 2098.49,503.145 c 0,3.8 -0.69,4.835 -3.46,5.183 l -3.1,0.692 c -6.57,0.691 -13.48,2.761 -17.28,4.835 -6.91,3.801 -11.4,8.293 -25.57,24.188 l -78.78,88.109 57.36,56.321 c 16.93,16.589 27.98,25.918 35.59,29.718 4.49,2.418 10.36,3.801 19.69,5.184 4.49,0.691 5.53,1.383 5.53,5.527 l 0,2.418 c 0,2.422 -1.04,3.457 -4.15,3.457 l -4.49,0 c -1.72,0 -4.84,-0.347 -8.99,-0.347 -9.67,-0.344 -17.27,-0.344 -22.8,-0.344 l -29.37,0.344 -11.74,0 c -2.08,0 -3.46,0 -4.84,0.347 -3.11,0 -4.15,-1.382 -4.15,-5.183 0,-4.836 1.04,-5.871 5.53,-6.219 11.4,-0.348 15.2,-2.422 15.2,-6.914 0,-5.18 -4.49,-11.055 -21.08,-28.332 l -63.57,-65.996 68.76,-80.856 c 8.29,-9.675 11.4,-14.859 11.4,-17.965 0,-4.492 -5.18,-7.601 -15.89,-8.292 -5.18,-0.348 -6.22,-1.383 -6.22,-5.532 0,-5.183 0.69,-5.875 5.18,-5.875 l 6.22,0 c 2.76,0 6.91,0 12.78,0.348 13.13,0.344 23.5,0.344 31.45,0.344 7.25,0 16.93,0 29.02,-0.344 l 10.71,-0.348 4.84,0 c 5.18,0 6.22,0.692 6.22,5.532 z m -134.41,-0.692 0,1.035 c 0,4.492 -1.04,5.184 -7.95,5.184 -11.4,0 -22.11,3.457 -23.84,8.293 -1.38,3.801 -2.08,12.094 -2.08,23.844 l 0,144.433 c 0,25.567 1.74,29.024 15.9,31.094 l 0.35,0 c 4.49,0.691 6.9,1.039 7.6,1.039 6.91,0.348 7.6,1.035 7.6,5.875 l 0,1.379 c 0,3.113 -0.69,4.492 -4.15,4.148 l -4.83,-0.347 -10.72,0 c -11.05,0 -18.31,-0.688 -22.11,-0.688 l -15.2,0 c -4.49,0 -12.1,0.688 -22.46,0.688 l -13.14,0 -2.07,0.347 c -3.8,0 -4.49,-1.035 -4.49,-4.492 l 0,-1.035 c 0,-4.84 1.04,-5.527 7.26,-5.875 1.04,0 3.45,-0.348 7.95,-1.039 l 0.34,0 c 14.17,-2.07 15.89,-5.527 15.89,-31.094 l 0,-144.433 c 0,-17.969 -1.38,-25.571 -5.52,-27.645 -2.42,-1.383 -5.88,-2.418 -10.37,-3.453 l -0.34,0 c -2.77,-0.691 -5.53,-1.039 -7.95,-1.039 -6.57,0 -7.26,-0.692 -7.26,-5.875 l 0,-1.383 c 0,-3.109 1.04,-3.801 4.15,-3.801 l 4.84,0 c 2.76,0 6.56,0.348 10.71,0.348 11.05,0.344 18.31,0.344 22.11,0.344 l 15.2,0 c 5.53,0 13.14,0 22.46,-0.344 5.88,-0.348 10.02,-0.348 12.79,-0.348 l 4.84,0 c 3.8,0 4.49,0.692 4.49,4.84"
         style="fill:#ffffff;fill-opacity:1;fill-rule:evenodd;stroke:none"
         id="path94"
         inkscape:connector-curvature="0" /><path
         d="m 2378.59,501.07 0,4.149 c 0,2.418 -1.38,3.453 -5.53,3.453 -6.56,0.348 -13.13,1.726 -17.27,3.801 -4.5,2.074 -6.57,5.183 -10.72,13.82 l -4.49,9.332 -81.89,191.426 c -3.11,6.906 -3.8,7.254 -8.29,7.254 l -4.15,0 c -3.45,0 -4.49,0 -5.18,-1.035 -0.69,-1.383 -2.07,-3.458 -3.45,-6.567 l -80.17,-189.699 c -5.53,-13.473 -7.6,-17.621 -11.4,-21.422 -1.38,-1.727 -3.46,-3.109 -5.19,-3.801 -3.11,-1.383 -6.91,-2.418 -14.51,-3.453 -3.11,-0.348 -3.8,-1.383 -3.8,-5.531 0,-4.492 0.69,-5.184 4.49,-5.184 l 6.91,0 c 13.83,0 23.85,0.692 29.72,0.692 5.18,0 15.55,-0.692 31.1,-0.692 l 6.91,0 c 4.49,0 5.53,1.039 5.53,5.532 0,4.835 -1.04,5.875 -7.26,5.875 -14.51,0.343 -21.77,3.8 -21.77,10.71 0,2.762 2.07,10.711 4.5,16.93 l 16.23,43.535 83.97,0 17.28,-44.57 3.11,-7.949 c 0.69,-1.383 1.38,-3.11 1.72,-5.184 0.69,-2.418 1.04,-4.144 1.04,-5.18 0,-4.148 -4.84,-6.566 -14.86,-7.601 -3.46,-0.348 -5.87,-0.348 -7.26,-0.691 -1.03,0 -2.07,-0.348 -2.76,-1.04 -1.04,-0.691 -1.38,-1.726 -1.38,-3.109 l 0,-3.457 c 0,-3.109 0.69,-3.801 3.8,-3.801 l 4.14,0 8.64,0.348 32.48,0 c 21.78,0 33.87,-0.348 36.63,-0.348 l 7.25,0 c 4.5,0 5.88,0.692 5.88,3.457 z m -102.62,96.403 -70.15,0 34.21,89.492 35.94,-89.492"
         style="fill:#ffffff;fill-opacity:1;fill-rule:evenodd;stroke:none"
         id="path96"
         inkscape:connector-curvature="0" /><path
         d="m 2839.27,623.391 c 0,64.957 -47.68,111.953 -113.68,111.953 -73.25,0 -126.81,-54.25 -126.81,-128.539 0,-68.071 47.68,-115.754 115.41,-115.754 71.52,0 121.62,51.137 124.74,126.808 0.34,1.731 0.34,3.801 0.34,5.532 z m -37.66,-15.899 c 0,-57.355 -33.17,-97.437 -81.2,-97.437 -48.37,0 -84.66,46.992 -84.66,109.879 0,58.394 32.14,97.093 80.86,97.093 48.37,0 85,-46.992 85,-109.535"
         style="fill:#ffffff;fill-opacity:1;fill-rule:evenodd;stroke:none"
         id="path98"
         inkscape:connector-curvature="0" /><path
         d="m 1812.86,502.453 0,3.109 c -0.35,1.727 -1.38,2.418 -4.49,2.766 l -8.3,1.035 c -16.24,2.071 -19.69,5.184 -20.04,20.039 l -0.34,11.407 0,144.433 c 0,0.688 0.34,4.492 0.69,11.746 0,2.766 0,4.836 0.35,6.91 0.34,4.149 2.07,7.602 4.48,8.985 3.46,2.418 11.75,4.144 21.77,5.183 3.81,0 4.15,1.036 4.15,5.184 l 0,1.379 c 0,3.113 -0.69,4.492 -4.15,4.148 l -5.87,-0.347 -15.2,-0.344 -23.15,0 -29.03,0.344 -15.55,0 c -1.03,0.347 -1.72,0.347 -2.41,0.347 -3.11,0 -3.81,-0.691 -3.81,-3.109 l -0.34,-1.383 0,-1.035 c 0,-4.84 0.69,-5.184 3.8,-5.527 10.37,-0.696 19.01,-2.422 22.11,-4.493 4.49,-3.457 5.53,-8.296 5.53,-27.988 l 0,-144.433 c 0,-17.625 -1.38,-24.883 -5.53,-27.645 -4.14,-2.766 -8.29,-3.801 -21.76,-4.492 -3.46,-0.344 -4.15,-1.383 -4.15,-5.875 l 0,-1.383 c 0,-3.109 1.04,-3.801 4.15,-3.801 l 4.84,0 c 3.45,0 7.25,0.348 10.7,0.348 11.4,0.344 18.66,0.344 22.12,0.344 l 15.89,0 c 4.84,0 12.1,0 22.46,-0.344 5.18,-0.348 8.99,-0.348 11.4,-0.348 l 5.53,0 c 3.46,0 4.15,0.692 4.15,4.84"
         style="fill:#ffffff;fill-opacity:1;fill-rule:nonzero;stroke:none"
         id="path100"
         inkscape:connector-curvature="0" /><path
         d="m 1466.84,723.594 c 0,3.801 -1.04,5.183 -4.49,5.183 -0.69,0 -1.73,-0.347 -3.46,-0.347 l -10.02,0 -22.46,-0.344 -21.07,0 c -6.57,0 -11.41,0.344 -13.48,0.344 -2.07,0 -3.8,0.347 -5.18,0.347 -3.11,0 -4.49,-1.726 -4.49,-5.875 0,-2.418 0.69,-4.144 2.07,-4.836 1.03,-0.691 1.73,-0.343 8.29,-1.039 13.82,-1.035 18.31,-4.144 18.31,-11.402 0,-4.148 -0.69,-8.293 -2.76,-14.855 l -3.11,-9.332 -43.54,-134.758 -44.57,133.722 -3.8,10.711 c -2.76,7.602 -3.46,11.403 -3.46,14.856 0,7.261 4.84,10.023 20.04,10.715 l 6.57,0.343 c 3.8,0.348 4.84,1.383 4.84,5.532 0,5.183 -1.38,6.218 -7.95,6.218 -1.73,0 -6.91,-0.347 -17.62,-0.691 -5.53,0 -12.79,0 -22.12,0 l -27.64,0 c -10.36,0 -13.47,0 -18.66,0.344 -1.03,0 -1.72,0.347 -2.42,0.347 -3.45,0 -4.49,-1.382 -4.49,-5.527 0,-5.527 0.69,-5.875 4.84,-6.223 13.13,-1.382 16.93,-2.761 20.73,-6.91 3.11,-4.148 5.87,-9.676 8.64,-19.004 l -47.68,-143.742 -48.03,137.524 -2.42,6.91 c -2.77,7.949 -3.46,10.367 -3.46,13.476 0,7.602 4.5,10.02 22.12,11.403 l 4.49,0.343 c 3.8,0.348 4.49,1.039 4.49,5.532 0,4.836 -1.03,6.562 -5.18,6.218 l -5.53,-0.347 -14.16,-0.344 -53.91,0 -14.51,0.344 c -1.73,0 -3.46,0.347 -4.15,0.347 -4.49,0 -5.18,-1.035 -5.18,-6.562 0,-2.77 0,-3.805 1.03,-4.492 1.04,-0.348 1.74,-0.696 5.54,-1.039 12.43,-1.383 16.93,-3.11 20.38,-7.258 2.07,-2.074 3.11,-4.836 6.57,-12.438 2.76,-6.566 4.83,-11.402 5.87,-14.515 l 66.69,-179.676 c 3.45,-9.676 4.14,-10.711 7.25,-10.711 l 7.26,0 c 3.11,0 4.15,1.383 5.87,6.219 l 55.98,166.203 58.05,-162.746 c 2.76,-7.95 4.49,-9.676 8.29,-9.676 l 6.22,0 c 3.11,0 3.8,0.691 5.87,5.527 l 1.39,4.492 65.65,179.68 6.21,16.238 c 3.12,7.946 3.81,9.676 6.92,12.438 3.45,3.457 7.6,5.184 16.24,6.566 6.56,1.039 6.91,1.039 7.6,2.075 0.35,1.035 0.69,2.418 0.69,4.492"
         style="fill:#ffffff;fill-opacity:1;fill-rule:nonzero;stroke:none"
         id="path102"
         inkscape:connector-curvature="0" /><path
         d="m 2581.72,724.629 c 0.35,3.113 -1.38,4.148 -4.49,4.148 l -7.6,0 -11.06,-0.347 c -2.41,0 -11.05,-0.344 -25.22,-0.344 l -55.28,0 -48.38,0.344 -21.42,0.347 -21.77,0 c -4.14,0 -4.84,0 -5.53,-1.726 -0.69,-1.383 -1.04,-2.766 -1.73,-10.715 l -3.11,-31.094 c 0,-2.078 -0.34,-4.496 -0.34,-6.566 l 0,-0.348 c 0,-2.07 3.11,-3.453 8.29,-3.453 1.73,0 2.42,0.691 2.77,2.418 2.76,14.164 10.02,24.879 19.69,29.367 8.3,3.801 18.32,5.188 49.76,5.188 l 4.83,0 0,-170.696 c 0,-19.351 -1.03,-24.535 -6.22,-27.297 -3.8,-2.421 -12.09,-4.144 -23.49,-5.183 -6.56,-0.344 -7.6,-1.035 -7.6,-4.492 l 0,-2.075 c 0,-3.453 1.04,-4.492 3.8,-4.492 l 4.14,0 c 3.46,0 8.99,0 16.94,0.348 12.78,0.344 23.49,0.344 31.44,0.344 l 35.93,-0.344 c 6.57,0 10.37,-0.348 11.75,-0.348 l 4.84,0 c 5.18,0 5.88,0.348 5.88,4.492 l 0,3.457 c 0,2.418 -1.39,2.766 -9.68,3.458 -14.17,1.035 -19,2.07 -23.15,3.8 -6.57,3.106 -7.95,7.946 -7.95,28.332 l 0,170.696 14.51,0 c 10.71,0 22.81,-0.348 29.72,-1.039 4.83,-0.692 8.98,-1.727 13.13,-3.801 6.91,-3.801 11.06,-11.746 12.78,-25.914 0.69,-5.184 1.39,-5.875 6.22,-5.875 4.84,0 5.53,0.691 5.88,4.144 l 0.34,5.532 0,7.945 1.04,23.496 0,3.801 0.34,4.492"
         style="fill:#ffffff;fill-opacity:1;fill-rule:nonzero;stroke:none"
         id="path104"
         inkscape:connector-curvature="0" /><path
         d="m 365.121,320.926 9.832,-49.895 c 0.703,-3.574 -3.828,-7.879 -7.394,-7.492 -5.106,0.555 -8.688,4.356 -12.516,11.707 -3.875,7.442 -7.484,17.395 -12.949,28.137 -3.782,7.445 -6.551,12.324 -9.473,17.605 l 32.5,-0.062 z m 48.672,0 c -4.91,-1.895 -10.609,-3.676 -17.922,-5.633 -9.258,-2.473 -15.488,-3.484 -23.535,-4.082 l -1.914,9.715 43.371,0 z m 32.633,0 0.062,-2.258 6.918,-5.211 -0.25,7.469 11.727,0 c -1.371,-3.559 -1.555,-7.289 -0.481,-10.781 1.196,-3.883 4.024,-7.286 8.364,-9.891 4.601,-2.766 9.355,-3.371 13.722,-2.281 4.297,1.07 8.063,4.101 10.617,8.347 2.469,4.118 3.422,8.535 2.575,12.7 -0.129,0.625 -0.301,1.242 -0.508,1.851 l 51.406,0.055 c 29.848,-11.348 62.567,-18.289 96.891,-18.336 34.64,0.051 67.586,7 97.586,18.359 l 48.199,-0.023 2.453,-3.926 6.285,3.926 3.133,0 14.246,-22.793 6.106,3.812 -11.86,18.981 22.457,0 2.996,-9.992 5.551,4.336 -1.758,5.656 26.352,0 c -11.863,-9.778 -24.633,-19.149 -38.043,-27.684 -61.574,-39.183 -122.086,-52.316 -183.703,-51.621 -61.617,-0.695 -122.129,12.438 -183.699,51.621 -13.415,8.535 -26.188,17.906 -38.047,27.754 l 20.703,-0.07 z m 45.57,0 c 1.301,-3.047 0.93,-6.871 -1.457,-10.84 -3.867,-6.441 -9.812,-7.922 -14.82,-4.914 -5.098,3.066 -6.578,9.008 -2.711,15.449 0.062,0.106 0.129,0.211 0.195,0.317 l 18.793,-0.012 z m 432.027,0 -1.914,-9.715 c -8.047,0.598 -14.277,1.609 -23.535,4.082 -7.367,1.973 -13.094,3.762 -18.035,5.664 l 43.484,-0.031 z m 37.797,0 c -2.918,-5.219 -5.687,-10.098 -9.472,-17.543 -5.461,-10.742 -9.071,-20.695 -12.946,-28.137 -3.828,-7.351 -7.41,-11.152 -12.515,-11.707 -3.567,-0.387 -8.102,3.918 -7.395,7.492 l 9.828,49.895 32.5,0 z M 805,289.895 l -27.32,25.375 -4.918,-2.293 2.398,-36.997 6.383,2.977 -0.664,8.961 10.59,4.937 6.578,-6.199 6.953,3.239 z m -42.48,-15.657 -4.305,14.071 -6.836,-2.09 3.371,-11.028 c -1.043,-0.863 -2.699,-1.699 -4.594,-2.277 -6.836,-2.09 -12.594,1.934 -14.531,8.27 -1.77,5.789 -0.043,12.101 8.687,14.769 3.293,1.008 6.512,1.008 9.633,0.438 l -1.793,6.214 c -2.918,0.09 -6.09,-0.062 -10.382,-1.371 -11.227,-3.433 -16.356,-13.242 -13.426,-22.82 2.82,-9.23 11.316,-14.711 21.746,-11.523 5.437,1.664 9.551,4.449 12.43,7.347 z m -44.2,-15.461 -5.382,33.957 -7.008,-1.109 2.742,-17.316 c 0.23,-1.442 0.582,-3.657 0.937,-5.239 -1.25,1.227 -2.39,2.422 -4,3.91 l -17.097,15.887 -7.114,-1.125 5.383,-33.961 7.008,1.11 -2.949,18.601 c -0.242,1.547 -0.57,3.61 -0.852,4.727 l 4.059,-3.953 17.726,-16.528 6.547,1.039 z m -44.351,-6.129 -14.633,34.293 -5.426,-0.093 -12.855,-34.77 7.043,0.121 3.035,8.453 11.683,0.203 3.485,-8.339 7.668,0.132 z m -38.442,33.672 -27.972,2.942 -0.61,-5.813 10.012,-1.051 -2.98,-28.386 7.16,-0.75 2.984,28.383 9.184,-0.965 2.222,5.64 z m -61.047,-25.968 1.512,5.644 -12.297,3.297 2.266,8.469 10.586,-2.836 1.527,5.691 -10.586,2.836 2.082,7.762 10.532,-2.82 3.328,5.156 -19.254,5.16 -8.899,-33.215 19.203,-5.144 z m -20.011,40.941 -26.43,9.617 -2,-5.492 9.465,-3.441 -9.762,-26.821 6.766,-2.465 9.762,26.821 8.679,-3.16 3.52,4.941 z m 232.59,-4.16 -6.762,-3.153 -0.551,7.227 c -0.141,1.66 -0.308,3.137 -0.605,4.266 0.699,-0.883 1.718,-1.961 2.968,-3.278 l 4.95,-5.062 z m -126.532,-30.574 -7.461,-0.129 2.438,6.824 c 0.547,1.578 0.992,2.992 1.18,4.144 0.281,-1.089 0.773,-2.492 1.375,-4.203 l 2.468,-6.636"
         style="fill:#ffffff;fill-opacity:1;fill-rule:evenodd;stroke:none"
         id="path106"
         inkscape:connector-curvature="0" /><path
         d="m 332.621,320.926 c -1.059,1.976 -2.133,3.945 -3.285,6.105 5.512,-1.965 10.758,-1.722 16.23,-0.582 6.36,1.328 12.555,4.457 16.571,9.625 l 2.984,-15.148 -32.5,0 z m 37.801,0 -5.973,30.301 -3.387,-6.989 c -3.578,-7.383 -8.441,-11.121 -16.488,-12.687 -8.5,-1.649 -17.832,-0.481 -20.984,6.496 -3.152,6.976 -1.594,14.82 7.621,22.445 5.656,4.684 12.883,6.871 20.246,8.121 6.828,1.16 13.473,1.492 18.605,2.328 6.383,-8.293 13.422,-16.644 21.227,-24.824 6.137,-6.433 12.672,-12.773 19.508,-18.945 l 5.691,-5.18 c -0.875,-0.363 -1.769,-0.722 -2.695,-1.078 l -43.371,0.012 z m 55.301,0 c -63.235,52.562 -100.668,118.527 -72.356,143.027 6.403,5.543 27.418,19.442 42.867,29.469 -17.461,-41.754 51.344,-133.348 154.344,-172.496 l -51.406,0 c -1.289,3.672 -4.094,7.066 -8.242,9.558 -4.52,2.715 -9.27,3.317 -13.594,2.204 -4.395,-1.133 -8.25,-4.11 -10.859,-8.45 -0.641,-1.066 -1.172,-2.16 -1.594,-3.265 l -11.727,-0.047 -0.511,15.449 20.726,4.961 -6.586,4.961 -17.551,-4.477 8.489,11.438 -5.668,4.273 -20.692,-27.461 5.668,-4.273 8.918,11.836 0.477,-16.707 -20.703,0 z m 47.48,0 c 3.871,6.183 9.703,7.562 14.715,4.551 1.91,-1.149 3.297,-2.707 4.078,-4.543 l -18.793,-0.008 z m 271.852,0 c 103.199,39.105 171.5,130.39 153.64,172.535 15.34,-9.961 36.407,-23.91 42.875,-29.508 28.313,-24.5 -9.121,-90.465 -72.355,-142.957 l -26.352,-0.07 -0.906,2.922 9.211,7.195 7.801,-4.563 6.047,4.723 -32.328,18.578 -4.278,-3.343 7.664,-25.512 -22.457,0 -3.265,5.222 7.832,4.895 -1.727,5.812 -23.848,-14.902 0.645,-1.027 -48.199,0 z m 56.937,0 2.254,1.406 0.879,-1.406 -3.133,0 z m 78.547,0 c -0.805,0.344 -1.594,0.656 -2.363,0.976 17.894,15.508 33.937,32.289 46.781,48.946 5.047,-0.77 11.453,-1.118 18.031,-2.235 7.364,-1.25 14.59,-3.437 20.246,-8.121 9.215,-7.625 10.77,-15.469 7.618,-22.445 -3.153,-6.977 -12.481,-8.145 -20.981,-6.496 -8.051,1.566 -12.914,5.304 -16.488,12.687 l -3.391,6.989 -5.969,-30.301 -43.484,0 z m 48.781,0 2.989,15.148 c 4.011,-5.168 10.207,-8.297 16.57,-9.625 5.473,-1.14 10.715,-1.383 16.23,0.582 -1.152,-2.16 -2.23,-4.129 -3.289,-6.043 l -32.5,-0.062 z m -83.414,13.293 -5.879,-4.594 -2.164,6.918 c -0.508,1.586 -1.008,2.984 -1.551,4.019 0.883,-0.703 2.122,-1.523 3.633,-2.527 l 5.961,-3.816 z m -409.195,70.609 c 9.402,8.82 19.641,23.445 22.977,33.699 4.343,13.356 6.121,24.035 3.707,35.129 10.386,-12.836 21.074,-24.879 21.074,-24.879 0,0 14.367,-14.988 24.82,-24.562 -2.488,-13.66 -5.613,-22.746 -11.477,-34.188 -4.019,-7.855 -8.699,-14.804 -12.371,-19.789 -1.964,-2.672 -3.64,-4.777 -4.773,-6.152 -3.152,2.352 -5.961,4.512 -8.66,6.664 -13.508,10.891 -25.336,22.461 -35.297,34.078 z m 398.047,33.699 c 3.379,-10.394 14.219,-25.488 22.586,-35.558 -9.774,-11.199 -24.563,-25.856 -43.156,-39.496 -1.129,1.379 -3.219,4.093 -5.184,6.765 -3.672,4.985 -8.352,11.934 -12.375,19.789 -5.859,11.442 -8.984,21.34 -11.473,35 10.453,9.571 24.047,23.719 24.047,23.719 0,0 11.461,12.074 21.844,24.91 -2.414,-11.094 -0.637,-21.773 3.711,-35.129"
         style="fill:#ffffff;fill-opacity:1;fill-rule:evenodd;stroke:none"
         id="path108"
         inkscape:connector-curvature="0" /><path
         d="m 650.531,638.449 c 0,0 4.059,4.414 14.293,5.137 14.067,0.996 19.18,-4.609 25.891,-7.922 15.476,-7.644 35.906,-5.809 35.906,-5.809 l 0,172.918 c 0,0 -19.723,-1.777 -35.906,5.274 -6.86,2.988 -11.434,9.465 -26.336,8.426 -10.215,-0.719 -13.848,-7.672 -13.848,-7.672 l 0,-170.352 z m -5.285,0 0,170.352 c 0,0 -3.633,6.953 -13.851,7.672 -14.903,1.039 -19.477,-5.438 -26.336,-8.426 -16.18,-7.051 -35.907,-5.274 -35.907,-5.274 l 0,-172.918 c 0,0 20.43,-1.835 35.907,5.809 6.711,3.313 11.828,8.918 25.89,7.922 10.235,-0.723 14.297,-5.137 14.297,-5.137 z m -85.117,156.129 c -3.691,-2.062 -6.356,-3.73 -7.863,-4.68 l 0,-178.554 11.699,16.968 0,169.329 c -1.387,-1.371 -2.594,-2.399 -3.836,-3.063 z m 175.519,0 c -1.25,0.664 -2.453,1.692 -3.839,3.063 l 0,-169.329 11.699,-16.968 0,178.554 c -1.504,0.95 -4.168,2.618 -7.86,4.68 z m 5.946,-189.781 -13.809,20.066 c -2.887,-0.242 -6.98,-0.468 -11.101,-0.304 -7.516,0.304 -17.473,1.625 -26.922,5.757 -3.59,1.571 -6.473,3.954 -10.403,5.797 -3.488,1.637 -7.992,2.864 -15.316,2.301 -5.242,-0.398 -8.688,-2.488 -10.816,-4.422 -1.012,-0.918 -1.739,-1.808 -2.723,-3.304 l 0.172,-16.626 c 0.344,-1.082 1.222,-2.921 3.512,-5.324 2.164,-2.273 3.886,-3.226 5.996,-3.929 l 81.41,-0.012 z m -187.41,0 81.406,0.012 c 2.109,0.703 3.828,1.656 5.996,3.929 2.293,2.403 3.168,4.242 3.512,5.324 l 0.175,16.626 c -0.988,1.496 -1.714,2.386 -2.726,3.304 -2.133,1.934 -5.574,4.024 -10.817,4.422 -7.324,0.563 -11.828,-0.664 -15.312,-2.301 -3.934,-1.843 -6.816,-4.226 -10.402,-5.797 -9.454,-4.132 -19.411,-5.453 -26.93,-5.757 -4.121,-0.164 -8.211,0.062 -11.098,0.304 l -13.804,-20.066 z m -14.926,172.883 0,-183.602 90.707,0 c -0.567,-7.035 6.723,-6.547 18.051,-6.539 11.058,-0.008 18.363,-0.492 17.789,6.539 l 90.711,0 0,183.602 -7.809,0 0,-178.082 -88.062,0.007 c -1.75,0.133 -2.516,0.305 -3.426,0.661 -1.828,0.714 -4.168,2.132 -6.793,4.886 -1.071,1.125 -1.84,2.25 -2.524,3.246 -0.683,-0.996 -1.484,-2.121 -2.554,-3.246 -2.621,-2.754 -4.965,-4.172 -6.793,-4.886 -0.91,-0.356 -1.676,-0.528 -3.422,-0.661 l -88.063,-0.007 0,178.082 -7.812,0 z m 139.961,-317.215 -11.969,36.832 31.336,22.765 -38.731,0 -11.968,36.836 -11.969,-36.836 -38.73,0 31.332,-22.765 -11.965,-36.832 31.332,22.765 31.332,-22.765 z m -6.383,376.187 -9.531,29.332 24.953,18.125 -30.84,0 -9.531,29.332 -9.528,-29.332 -30.843,0 24.949,-18.125 -9.527,-29.332 24.949,18.125 24.949,-18.125 z m 159.375,-160.996 -9.531,29.332 24.953,18.125 -30.84,0 -9.531,29.328 -9.528,-29.328 -30.839,0 24.945,-18.125 -9.528,-29.332 24.95,18.125 24.949,-18.125 z m -319.758,0 -9.531,29.332 24.949,18.125 -30.84,0 -9.531,29.328 -9.527,-29.328 -30.84,0 24.949,-18.125 -9.531,-29.332 24.949,18.125 24.953,-18.125 z m -72.015,249.989 414.917,0 0,-220.668 c 0,0 0,-77.961 -62.105,-169.137 -53.445,-78.461 -145.773,-128.008 -145.773,-128.008 0,0 -102.231,61.152 -152.864,141.223 -56.82,89.851 -54.175,169.136 -54.175,169.136 l 0,207.454"
         style="fill:#ffffff;fill-opacity:1;fill-rule:evenodd;stroke:none"
         id="path110"
         inkscape:connector-curvature="0" /><path
         d="m 918.352,989.449 -540.973,0 0,-278.347 c 0,0 0.898,-28.516 11.098,-70.106 10.218,-41.691 29.769,-96.41 67.054,-148.609 36.348,-50.887 84.598,-90.403 123.824,-117.211 34.711,-23.727 62.27,-37.442 68.079,-40.254 5.605,2.867 31.597,16.492 64.539,39 37.339,25.516 83.488,62.375 119.004,107.832 46.136,59.055 67.972,114.305 78.281,154.734 10.269,40.274 9.097,65.93 9.097,65.93 l -0.003,287.031 z m 5.199,5.199 0,-292.109 c 0.015,-0.387 4.797,-104.594 -88.481,-223.984 -71.879,-92.004 -187.59,-149.418 -187.621,-149.434 -0.054,-0.043 -31.457,14.715 -71.027,41.762 -39.504,26.996 -88.281,66.91 -125.121,118.48 -75.516,105.723 -79.113,221.492 -79.121,221.653 l 0,283.632 551.371,0"
         style="fill:#ffffff;fill-opacity:1;fill-rule:evenodd;stroke:none"
         id="path112"
         inkscape:connector-curvature="0" /><path
         d="m 504.277,510.555 c 2.746,-4.723 5.348,-9.18 7.871,-13.477 -13.191,3.738 -26.851,7.676 -39.175,13.535 l 31.304,-0.058 z m 287.871,0 c -2.75,-4.723 -5.351,-9.18 -7.871,-13.477 13.188,3.738 26.848,7.676 39.168,13.535 l -31.297,-0.058 z m -144.496,-160 c 15.606,6.777 28.813,14.609 39.203,22.679 42.758,32.539 -4.121,44.664 -20.531,27.817 -14.183,-14.555 1.375,-20.848 13.578,-16.582 0,0 -8.582,-5.883 -16.922,-10.692 -5.269,-3.039 -10.96,-6.14 -15.5,-8.172 -4.542,2.032 -10.234,5.133 -15.503,8.172 -8.34,4.809 -16.918,10.692 -16.918,10.692 12.199,-4.266 27.753,2.027 13.574,16.582 -16.414,16.847 -63.289,4.722 -20.531,-27.817 10.386,-8.07 23.945,-15.902 39.55,-22.679 z m 181.364,153.297 c -33.098,-17.645 -55.516,-16.114 -78.262,-34.231 -35.438,-28.23 0.242,-35.832 15.555,-19.887 10.753,11.204 -0.887,15.957 -9.149,11.84 15.883,10.809 26.11,12.817 43.172,18.754 0,0 -26.16,-39.418 -63.75,-60.273 7.219,7.691 5.902,21.757 -9.805,13.824 -22.363,-11.297 -25.465,-53.129 16.407,-23.43 55.898,39.653 85.832,93.403 85.832,93.403 z m -361.61,0 c 33.102,-17.645 55.516,-16.114 78.262,-34.231 35.437,-28.23 -0.242,-35.832 -15.551,-19.887 -10.758,11.204 0.883,15.957 9.141,11.84 -15.879,10.809 -26.106,12.817 -43.164,18.754 0,0 26.156,-39.418 63.746,-60.273 -7.219,7.691 -5.899,21.757 9.808,13.824 22.364,-11.297 25.461,-53.129 -16.406,-23.43 -55.898,39.653 -85.836,93.403 -85.836,93.403"
         style="fill:#ffffff;fill-opacity:1;fill-rule:evenodd;stroke:none"
         id="path114"
         inkscape:connector-curvature="0" /><path
         d="m 404.477,670.555 c 1.668,-8.848 3.894,-18.043 6.863,-27.078 -0.844,10.582 10.492,23.585 18.258,7.804 11.058,-22.469 -16.235,-58.715 -29.496,-9.152 -2.497,9.336 -4.422,18.894 -5.895,28.355 l 10.27,0.071 z m 27.515,0 c -2.445,-10 -11.844,-7.625 -18.469,0.043 l 18.469,-0.043 z m 432.805,0 c 2.445,-10 11.844,-7.625 18.469,0.043 l -18.469,-0.043 z m 27.512,0 c -1.664,-8.848 -3.891,-18.043 -6.86,-27.078 0.844,10.582 -10.492,23.585 -18.258,7.804 -11.058,-22.469 16.231,-58.715 29.493,-9.152 2.5,9.336 4.425,18.894 5.898,28.355 l -10.273,0.071 z m -419.336,-160 c -11.914,5.73 -22.571,13.199 -30.332,24.027 -26.375,36.82 1.148,35.973 15.554,19.883 10.356,-11.567 -1.187,-16.82 -9.148,-11.836 13.633,-14.645 23.035,-19.547 37.207,-25.317 0,0 -20.902,41.176 -47.899,70.188 6.891,-8.066 5.903,-21.758 -9.804,-13.824 -22.36,11.293 -16.774,62.574 16.402,23.426 11.231,-13.25 21.035,-27.387 29.293,-39.317 12.457,-17.992 21.883,-33.5 30.031,-47.301 l -31.304,0.071 z m 350.472,0 c 11.918,5.73 22.575,13.199 30.336,24.027 26.375,36.82 -1.148,35.973 -15.554,19.883 -10.356,-11.567 1.187,-16.82 9.148,-11.836 -13.633,-14.645 -23.035,-19.547 -37.207,-25.317 0,0 20.906,41.176 47.898,70.188 -6.89,-8.066 -5.898,-21.758 9.805,-13.824 22.363,11.293 16.774,62.574 -16.402,23.426 -11.231,-13.25 -21.035,-27.387 -29.293,-39.317 -12.457,-17.992 -21.883,-33.5 -30.028,-47.301 l 31.297,0.071"
         style="fill:#ffffff;fill-opacity:1;fill-rule:evenodd;stroke:none"
         id="path116"
         inkscape:connector-curvature="0" /><path
         d="m 394.207,670.555 c -7.555,48.437 -3.211,94.355 -3.211,94.355 15.809,-34 31.934,-44.742 39.188,-72.89 2.601,-10.098 2.91,-17.063 1.808,-21.532 l -18.469,0.067 c -3.343,3.918 -5.984,9.14 -6.664,14.808 -1.839,15.414 9.582,12.617 13.36,4.082 -5.59,17.442 -10.473,24.891 -20.524,39.899 0,0 -1.16,-27.219 4.782,-58.782 l -10.27,-0.007 z m 489.059,0 c 3.343,3.918 5.984,9.14 6.66,14.808 1.844,15.414 -9.578,12.617 -13.36,4.082 5.594,17.442 10.481,24.891 20.528,39.899 0,0 1.16,-27.219 -4.785,-58.782 l 10.273,-0.007 c 7.555,48.437 3.211,94.355 3.211,94.355 -15.809,-34 -31.934,-44.742 -39.188,-72.89 -2.601,-10.098 -2.91,-17.063 -1.808,-21.532 l 18.469,0.067 z m 10.703,292.742 c 6.285,-15.895 10.457,-32.016 12.105,-45.117 7.223,-53.242 -32.926,-28.637 -34.191,-5.153 -1.11,20.578 17.144,13.875 21.273,3.914 -0.906,6.204 -1.324,9.219 -3.726,18.012 -1.715,6.289 -4.211,12.567 -6.391,17.57 -5.008,2.184 -11.238,4.696 -17.527,6.415 -8.793,2.402 -11.809,2.82 -18.016,3.73 9.965,-4.133 16.668,-22.383 -3.91,-21.273 -23.484,1.261 -48.094,41.414 5.148,34.183 13.106,-1.64 29.34,-5.996 45.235,-12.281 z M 868.051,722.492 c 17.246,23.328 33.359,50.246 39.129,78.738 8.996,44.391 -22.629,27.672 -24.098,5.618 -1.031,-15.489 11.125,-12.504 14.016,-3.575 -5.219,-18.476 -9.223,-28.781 -18.473,-44.289 l 0,55.383 c 1.199,14.156 1.867,20.676 6.277,33.66 -1.679,-10.504 9.633,-20.847 16.563,-4.679 9.863,23.019 -14,57.414 -27.77,7.972 -3.871,-13.914 -4.851,-22.105 -5.55,-36.492 l -0.094,-92.336 z M 623.059,937.805 c 26.48,17.535 57.16,33.773 89.503,39.644 50.387,9.141 31.04,-23.054 6.008,-24.551 -17.582,-1.05 -13.824,11.356 -3.687,14.297 -20.973,-5.304 -32.797,-9.234 -50.403,-18.64 l 60.172,0 c 15.645,0.175 33.793,2.058 48.532,6.539 -11.922,-1.707 -23.223,9.633 -4.872,16.679 26.129,10.032 64.524,-14.097 8.411,-28.101 -15.797,-3.938 -35.383,-5.586 -51.547,-5.774 l -102.117,-0.093 z m -220.207,25.492 c -6.286,-15.895 -10.457,-32.016 -12.106,-45.117 -7.223,-53.242 32.926,-28.637 34.192,-5.153 1.109,20.578 -17.145,13.875 -21.278,3.914 0.91,6.204 1.324,9.219 3.727,18.012 1.718,6.289 4.211,12.567 6.394,17.57 5.008,2.184 11.239,4.696 17.528,6.415 8.793,2.402 11.808,2.82 18.011,3.73 -9.961,-4.133 -16.664,-22.383 3.914,-21.273 23.485,1.261 48.094,41.414 -5.152,34.183 -13.102,-1.64 -29.336,-5.996 -45.23,-12.281 z m 25.882,-240.805 c -17.246,23.328 -33.355,50.246 -39.125,78.738 -8.996,44.391 22.629,27.672 24.098,5.618 1.031,-15.489 -11.125,-12.504 -14.016,-3.575 5.215,-18.476 9.219,-28.781 18.473,-44.289 l 0,55.383 c -1.195,14.156 -1.867,20.676 -6.277,33.66 1.679,-10.504 -9.633,-20.847 -16.563,-4.679 -9.863,23.019 13.996,57.414 27.766,7.972 3.879,-13.914 4.855,-22.105 5.555,-36.492 l 0.089,-92.336 z m 243.161,255.543 c -26.477,-17.535 -57.161,-33.773 -89.5,-39.64 -50.391,-9.145 -31.043,23.05 -6.008,24.546 17.582,1.051 13.824,-11.355 3.683,-14.296 20.977,5.304 32.801,9.234 50.407,18.64 l -60.172,0 c -15.649,-0.176 -33.797,-2.058 -48.532,-6.539 11.922,1.707 23.223,-9.633 4.872,-16.68 -26.129,-10.031 -64.528,14.102 -8.411,28.102 15.793,3.937 35.383,5.586 51.551,5.773 l 102.11,0.094"
         style="fill:#ffffff;fill-opacity:1;fill-rule:evenodd;stroke:none"
         id="path118"
         inkscape:connector-curvature="0" /><path
         d="m 861.902,477.363 c 0.543,-3.156 3.293,-5.562 6.598,-5.562 3.699,0 6.699,2.996 6.699,6.695 0,1.629 -0.543,3.129 -1.527,4.301 -1.016,1.062 -2.344,1.828 -3.813,2.254 -4.632,1.355 -10.863,-0.504 -14.41,-6.328 -4.781,-7.848 0.137,-19.094 9.106,-22.614 9.715,-3.812 28.863,1.125 30.965,20.95 1.406,13.226 -3.344,21.367 -12.047,26.343 -11.157,6.137 -34.516,3.321 -39.153,-17.601 l 0.875,-0.414 c 10.707,13.66 23.528,13.82 31.27,9.722 10.945,-5.793 10.488,-19.312 5.808,-25.734 -4.625,-6.344 -11.859,-7.687 -17.48,-3.867 -2.977,2.023 -4.906,7.359 -2.891,11.855 z m -428.441,0 c -0.543,-3.156 -3.289,-5.562 -6.598,-5.562 -3.699,0 -6.695,2.996 -6.695,6.695 0,1.629 0.539,3.129 1.527,4.301 1.016,1.062 2.34,1.828 3.813,2.254 4.633,1.355 10.859,-0.504 14.406,-6.328 4.785,-7.848 -0.137,-19.094 -9.105,-22.614 -9.715,-3.812 -28.86,1.125 -30.965,20.95 -1.403,13.226 3.344,21.367 12.051,26.343 11.152,6.137 34.511,3.321 39.148,-17.601 l -0.875,-0.414 c -10.711,13.66 -23.527,13.82 -31.27,9.722 -10.945,-5.793 -10.488,-19.312 -5.808,-25.734 4.625,-6.344 11.859,-7.687 17.48,-3.867 2.977,2.023 4.907,7.359 2.891,11.855"
         style="fill:#ffffff;fill-opacity:1;fill-rule:evenodd;stroke:none"
         id="path120"
         inkscape:connector-curvature="0" /><path
         d="m 735.648,794.578 c -1.25,0.664 -2.453,1.692 -3.839,3.063 l 0,-169.329 11.699,-16.968 0,178.554 c -1.504,0.95 -4.168,2.618 -6.508,3.942 l -1.352,0.738 z M 650.531,638.449 c 0,0 4.059,4.414 14.293,5.137 14.067,0.996 19.18,-4.609 25.891,-7.922 15.476,-7.644 35.906,-5.809 35.906,-5.809 l 0,172.918 c 0,0 -19.723,-1.777 -35.906,5.274 -6.86,2.988 -11.434,9.465 -26.336,8.426 -10.215,-0.719 -13.848,-7.672 -13.848,-7.672 l 0,-170.352 z m -5.285,0 0,170.352 c 0,0 -3.633,6.953 -13.851,7.672 -14.903,1.039 -19.477,-5.438 -26.336,-8.426 -16.18,-7.051 -35.907,-5.274 -35.907,-5.274 l 0,-172.918 c 0,0 20.43,-1.835 35.907,5.809 6.711,3.313 11.828,8.918 25.89,7.922 10.235,-0.723 14.297,-5.137 14.297,-5.137 z m -91.062,-33.652 81.406,0.012 c 2.109,0.703 3.828,1.656 5.996,3.929 2.293,2.403 3.168,4.242 3.512,5.324 l 0.179,1.758 -0.004,14.868 c -0.988,1.496 -1.714,2.386 -2.726,3.304 -2.133,1.934 -5.574,4.024 -10.817,4.422 -7.324,0.563 -11.828,-0.664 -15.312,-2.301 -3.934,-1.843 -6.816,-4.226 -10.402,-5.797 -9.454,-4.132 -19.411,-5.453 -26.93,-5.757 -4.121,-0.164 -8.211,0.062 -11.098,0.304 l -13.804,-20.066 z m 5.945,189.781 c -3.691,-2.062 -6.356,-3.73 -7.863,-4.68 l 0,-178.554 11.699,16.968 0,169.329 c -1.387,-1.371 -2.594,-2.399 -3.836,-3.063 z M 650.504,630.688 650.5,615.82 c -0.059,-0.82 0.008,-1.211 0.176,-1.758 0.344,-1.082 1.211,-2.937 3.512,-5.324 2.425,-2.515 4.496,-3.449 5.667,-3.918 l 81.739,-0.023 -13.809,20.066 c -2.887,-0.242 -6.98,-0.468 -11.101,-0.304 -7.516,0.304 -17.473,1.625 -26.922,5.757 -3.59,1.571 -6.473,3.954 -10.403,5.797 -3.488,1.637 -7.992,2.864 -15.316,2.301 -5.242,-0.398 -8.688,-2.488 -10.816,-4.422 -1.012,-0.918 -1.739,-1.808 -2.723,-3.304 z m -71.949,177.07 c 7.57,0.304 16.82,1.558 25.465,5.34 3.55,1.55 6.39,3.918 10.277,5.742 4.332,2.035 9.738,3.402 17.922,2.777 6.551,-0.504 11.047,-3.16 13.906,-5.75 0.68,-0.617 1.262,-1.226 1.762,-1.797 0.496,0.571 1.082,1.18 1.761,1.797 2.864,2.59 7.36,5.246 13.907,5.75 8.183,0.625 13.593,-0.742 17.922,-2.777 3.886,-1.824 6.73,-4.192 10.277,-5.742 8.644,-3.782 17.894,-5.036 25.465,-5.34 6.926,-0.238 13.601,0.601 14.449,0.695 0.398,-1.598 1.047,-5.648 6.652,-9.336 3.344,-2.203 10.387,-6.371 10.387,-6.371 l 0,-193.148 -88.062,0.007 c -1.75,0.133 -2.516,0.305 -3.426,0.661 -1.828,0.714 -4.168,2.132 -6.793,4.886 -1.031,1.082 -1.867,2.114 -2.539,3.082 -0.668,-0.968 -1.504,-2 -2.539,-3.082 -2.621,-2.754 -4.965,-4.172 -6.793,-4.886 -0.91,-0.356 -1.676,-0.528 -2.266,-0.61 l -89.219,-0.058 0,193.148 c 0,0 7.035,4.168 10.387,6.371 5.602,3.688 6.25,7.738 6.648,9.336 0.852,-0.094 7.524,-0.933 14.45,-0.695"
         style="fill:#ffffff;fill-opacity:1;fill-rule:nonzero;stroke:none"
         id="path122"
         inkscape:connector-curvature="0" /><path
         d="m 719.508,649.191 c 0,0 -7.555,-2.246 -20.344,1.516 -10.352,3.039 -16.226,8.816 -24.898,9.465 -8.672,0.652 -16.981,-1.512 -16.981,-1.512 0,0 7.192,5.871 15.461,5.922 11.637,0.074 18.211,-6.125 28.008,-9.68 12.137,-4.41 18.754,-5.711 18.754,-5.711 z m 0,16.7 c 0,0 -7.555,-2.239 -20.344,1.519 -10.352,3.039 -16.226,8.813 -24.898,9.465 -8.672,0.652 -16.981,-1.516 -16.981,-1.516 0,0 7.192,5.875 15.461,5.926 11.637,0.074 18.211,-6.125 28.008,-9.683 12.137,-4.407 18.754,-5.711 18.754,-5.711 z m 0,16.703 c 0,0 -7.555,-2.242 -20.344,1.515 -10.352,3.039 -16.226,8.817 -24.898,9.465 -8.672,0.653 -16.981,-1.515 -16.981,-1.515 0,0 7.192,5.875 15.461,5.929 11.637,0.071 18.211,-6.129 28.008,-9.687 12.137,-4.406 18.754,-5.707 18.754,-5.707 z m 0,16.703 c 0,0 -7.555,-2.246 -20.344,1.512 -10.352,3.043 -16.226,8.82 -24.898,9.468 -8.672,0.649 -16.981,-1.515 -16.981,-1.515 0,0 7.192,5.875 15.461,5.926 11.637,0.07 18.211,-6.126 28.008,-9.68 12.137,-4.41 18.754,-5.711 18.754,-5.711 z m 0,16.703 c 0,0 -7.555,-2.242 -20.344,1.516 -10.352,3.039 -16.226,8.816 -24.898,9.464 -8.672,0.653 -16.981,-1.515 -16.981,-1.515 0,0 7.192,5.875 15.461,5.93 11.637,0.07 18.211,-6.129 28.008,-9.684 12.137,-4.41 18.754,-5.711 18.754,-5.711 z m 0,16.699 c 0,0 -7.555,-2.242 -20.344,1.516 -10.352,3.039 -16.226,8.816 -24.898,9.465 -8.672,0.652 -16.981,-1.512 -16.981,-1.512 0,0 7.192,5.871 15.461,5.926 11.637,0.07 18.211,-6.129 28.008,-9.684 12.137,-4.41 18.754,-5.711 18.754,-5.711 z m 0,16.703 c 0,0 -7.555,-2.242 -20.344,1.516 -10.352,3.039 -16.226,8.816 -24.898,9.465 -8.672,0.652 -16.981,-1.516 -16.981,-1.516 0,0 7.192,5.875 15.461,5.926 11.637,0.074 18.211,-6.125 28.008,-9.684 12.137,-4.406 18.754,-5.707 18.754,-5.707 z m 0,16.703 c 0,0 -7.555,-2.242 -20.344,1.516 -10.352,3.043 -16.226,8.817 -24.898,9.469 -8.672,0.648 -16.981,-1.516 -16.981,-1.516 0,0 7.192,5.871 15.461,5.922 11.637,0.074 18.211,-6.125 28.008,-9.68 12.137,-4.41 18.754,-5.711 18.754,-5.711 z m 0,16.704 c 0,0 -7.555,-2.243 -20.344,1.515 -10.352,3.039 -16.226,8.813 -24.898,9.465 -8.672,0.652 -16.981,-1.516 -16.981,-1.516 0,0 7.192,5.875 15.461,5.926 11.637,0.074 18.211,-6.125 28.008,-9.683 12.137,-4.407 18.754,-5.707 18.754,-5.707 z M 576.266,649.191 c 0,0 7.554,-2.246 20.347,1.516 10.348,3.039 16.223,8.816 24.895,9.465 8.672,0.652 16.98,-1.512 16.98,-1.512 0,0 -7.195,5.871 -15.461,5.922 -11.636,0.074 -18.211,-6.125 -28.004,-9.68 -12.14,-4.41 -18.757,-5.711 -18.757,-5.711 z m 0,16.7 c 0,0 7.554,-2.239 20.347,1.519 10.348,3.039 16.223,8.813 24.895,9.465 8.672,0.652 16.98,-1.516 16.98,-1.516 0,0 -7.195,5.875 -15.461,5.926 -11.636,0.074 -18.211,-6.125 -28.004,-9.683 -12.14,-4.407 -18.757,-5.711 -18.757,-5.711 z m 0,16.703 c 0,0 7.554,-2.242 20.347,1.515 10.348,3.039 16.223,8.817 24.895,9.465 8.672,0.653 16.98,-1.515 16.98,-1.515 0,0 -7.195,5.875 -15.461,5.929 -11.636,0.071 -18.211,-6.129 -28.004,-9.687 -12.14,-4.406 -18.757,-5.707 -18.757,-5.707 z m 0,16.703 c 0,0 7.554,-2.246 20.347,1.512 10.348,3.043 16.223,8.82 24.895,9.468 8.672,0.649 16.98,-1.515 16.98,-1.515 0,0 -7.195,5.875 -15.461,5.926 -11.636,0.07 -18.211,-6.126 -28.004,-9.68 -12.14,-4.41 -18.757,-5.711 -18.757,-5.711 z m 0,16.703 c 0,0 7.554,-2.242 20.347,1.516 10.348,3.039 16.223,8.816 24.895,9.464 8.672,0.653 16.98,-1.515 16.98,-1.515 0,0 -7.195,5.875 -15.461,5.93 -11.636,0.07 -18.211,-6.129 -28.004,-9.684 C 582.883,717.301 576.266,716 576.266,716 z m 0,16.699 c 0,0 7.554,-2.242 20.347,1.516 10.348,3.039 16.223,8.816 24.895,9.465 8.672,0.652 16.98,-1.512 16.98,-1.512 0,0 -7.195,5.871 -15.461,5.926 -11.636,0.07 -18.211,-6.129 -28.004,-9.684 -12.14,-4.41 -18.757,-5.711 -18.757,-5.711 z m 0,16.703 c 0,0 7.554,-2.242 20.347,1.516 10.348,3.039 16.223,8.816 24.895,9.465 8.672,0.652 16.98,-1.516 16.98,-1.516 0,0 -7.195,5.875 -15.461,5.926 -11.636,0.074 -18.211,-6.125 -28.004,-9.684 -12.14,-4.406 -18.757,-5.707 -18.757,-5.707 z m 0,16.703 c 0,0 7.554,-2.242 20.347,1.516 10.348,3.043 16.223,8.817 24.895,9.469 8.672,0.648 16.98,-1.516 16.98,-1.516 0,0 -7.195,5.871 -15.461,5.922 -11.636,0.074 -18.211,-6.125 -28.004,-9.68 -12.14,-4.41 -18.757,-5.711 -18.757,-5.711 z m 0,16.704 c 0,0 7.554,-2.243 20.347,1.515 10.348,3.039 16.223,8.813 24.895,9.465 8.672,0.652 16.98,-1.516 16.98,-1.516 0,0 -7.195,5.875 -15.461,5.926 -11.636,0.074 -18.211,-6.125 -28.004,-9.683 -12.14,-4.407 -18.757,-5.707 -18.757,-5.707"
         style="fill:#ffffff;fill-opacity:1;fill-rule:evenodd;stroke:none"
         id="path124"
         inkscape:connector-curvature="0" /></g><path
       style="fill:#ffffff"
       d=""
       id="path3156"
       inkscape:connector-curvature="0"
       transform="matrix(0.8,0,0,-0.8,31.737146,43.790825)" /><text
       xml:space="preserve"
       style="font-size:50.33600235000000112px;font-style:normal;font-variant:normal;font-weight:normal;font-stretch:normal;text-align:justify;line-height:200%;letter-spacing:0px;word-spacing:0px;writing-mode:lr-tb;text-anchor:start;fill:#ffffff;fill-opacity:1;stroke:none;font-family:Serif;-inkscape-font-specification:Serif"
       x="-99.41214"
       y="-100.95609"
       id="text3657"
       sodipodi:linespacing="200%"
       transform="scale(1.0890962,-0.91819254)"><tspan
         sodipodi:role="line"
         id="tspan3661"
         x="-99.41214"
         y="-100.95609">WAIKATO</tspan></text>
<text
       xml:space="preserve"
       style="font-size:22.61384392000000076px;font-style:normal;font-variant:normal;font-weight:normal;font-stretch:normal;text-align:justify;line-height:200%;letter-spacing:0px;word-spacing:0px;writing-mode:lr-tb;text-anchor:start;fill:#ffffff;fill-opacity:1;stroke:none;font-family:Serif;-inkscape-font-specification:Serif"
       x="-101.50069"
       y="-141.54619"
       id="text3663"
       sodipodi:linespacing="200%"
       transform="scale(1.0666862,-0.93748283)"
       inkscape:export-filename="/home/troyw/public_html/moodle27x/theme/sofresh/pix/text3663.png"
       inkscape:export-xdpi="27.387589"
       inkscape:export-ydpi="27.387589"><tspan
         sodipodi:role="line"
         id="tspan3667"
         x="-101.50069"
         y="-141.54619">THE UNIVERSITY OF</tspan></text>
</g></svg>